<mxfile host="app.diagrams.net" modified="2023-07-02T14:38:59.316Z" agent="Mozilla/5.0 (Windows NT 10.0; Win64; x64) AppleWebKit/537.36 (KHTML, like Gecko) Chrome/97.0.4692.71 Safari/537.36" etag="99jdnsV7CZrrBHGAwqDP" version="21.5.2" type="github">
  <diagram name="第 1 页" id="7XDvAtK-scoY1RWw8ZJM">
    <mxGraphModel dx="875" dy="521" grid="0" gridSize="10" guides="1" tooltips="1" connect="1" arrows="1" fold="1" page="1" pageScale="1" pageWidth="2336" pageHeight="1654" math="0" shadow="0">
      <root>
        <mxCell id="0" />
        <mxCell id="1" parent="0" />
        <mxCell id="mhQpvdxV0dP0eFCjO9TV-3" value="" style="shape=table;startSize=0;container=1;collapsible=0;childLayout=tableLayout;fontSize=16;fontFamily=Comic Sans MS;" vertex="1" parent="1">
          <mxGeometry x="130" y="190" width="153" height="320" as="geometry" />
        </mxCell>
        <mxCell id="mhQpvdxV0dP0eFCjO9TV-4" value="" style="shape=tableRow;horizontal=0;startSize=0;swimlaneHead=0;swimlaneBody=0;strokeColor=inherit;top=0;left=0;bottom=0;right=0;collapsible=0;dropTarget=0;fillColor=none;points=[[0,0.5],[1,0.5]];portConstraint=eastwest;" vertex="1" parent="mhQpvdxV0dP0eFCjO9TV-3">
          <mxGeometry width="153" height="40" as="geometry" />
        </mxCell>
        <mxCell id="mhQpvdxV0dP0eFCjO9TV-5" value="固定参数val1" style="shape=partialRectangle;html=1;whiteSpace=wrap;connectable=0;strokeColor=inherit;overflow=hidden;fillColor=none;top=0;left=0;bottom=0;right=0;pointerEvents=1;fontSize=16;fontFamily=Comic Sans MS;" vertex="1" parent="mhQpvdxV0dP0eFCjO9TV-4">
          <mxGeometry width="153" height="40" as="geometry">
            <mxRectangle width="153" height="40" as="alternateBounds" />
          </mxGeometry>
        </mxCell>
        <mxCell id="mhQpvdxV0dP0eFCjO9TV-6" value="" style="shape=tableRow;horizontal=0;startSize=0;swimlaneHead=0;swimlaneBody=0;strokeColor=inherit;top=0;left=0;bottom=0;right=0;collapsible=0;dropTarget=0;fillColor=none;points=[[0,0.5],[1,0.5]];portConstraint=eastwest;" vertex="1" parent="mhQpvdxV0dP0eFCjO9TV-3">
          <mxGeometry y="40" width="153" height="40" as="geometry" />
        </mxCell>
        <mxCell id="mhQpvdxV0dP0eFCjO9TV-7" value="第二个固定参数val2" style="shape=partialRectangle;html=1;whiteSpace=wrap;connectable=0;strokeColor=inherit;overflow=hidden;fillColor=none;top=0;left=0;bottom=0;right=0;pointerEvents=1;fontSize=16;fontFamily=Comic Sans MS;" vertex="1" parent="mhQpvdxV0dP0eFCjO9TV-6">
          <mxGeometry width="153" height="40" as="geometry">
            <mxRectangle width="153" height="40" as="alternateBounds" />
          </mxGeometry>
        </mxCell>
        <mxCell id="mhQpvdxV0dP0eFCjO9TV-8" value="" style="shape=tableRow;horizontal=0;startSize=0;swimlaneHead=0;swimlaneBody=0;strokeColor=inherit;top=0;left=0;bottom=0;right=0;collapsible=0;dropTarget=0;fillColor=none;points=[[0,0.5],[1,0.5]];portConstraint=eastwest;" vertex="1" parent="mhQpvdxV0dP0eFCjO9TV-3">
          <mxGeometry y="80" width="153" height="40" as="geometry" />
        </mxCell>
        <mxCell id="mhQpvdxV0dP0eFCjO9TV-9" value="..." style="shape=partialRectangle;html=1;whiteSpace=wrap;connectable=0;strokeColor=inherit;overflow=hidden;fillColor=none;top=0;left=0;bottom=0;right=0;pointerEvents=1;fontSize=16;fontFamily=Comic Sans MS;" vertex="1" parent="mhQpvdxV0dP0eFCjO9TV-8">
          <mxGeometry width="153" height="40" as="geometry">
            <mxRectangle width="153" height="40" as="alternateBounds" />
          </mxGeometry>
        </mxCell>
        <mxCell id="mhQpvdxV0dP0eFCjO9TV-10" value="" style="shape=tableRow;horizontal=0;startSize=0;swimlaneHead=0;swimlaneBody=0;strokeColor=inherit;top=0;left=0;bottom=0;right=0;collapsible=0;dropTarget=0;fillColor=none;points=[[0,0.5],[1,0.5]];portConstraint=eastwest;" vertex="1" parent="mhQpvdxV0dP0eFCjO9TV-3">
          <mxGeometry y="120" width="153" height="40" as="geometry" />
        </mxCell>
        <mxCell id="mhQpvdxV0dP0eFCjO9TV-11" value="第N个固定参数valN" style="shape=partialRectangle;html=1;whiteSpace=wrap;connectable=0;strokeColor=inherit;overflow=hidden;fillColor=none;top=0;left=0;bottom=0;right=0;pointerEvents=1;fontSize=16;fontFamily=Comic Sans MS;" vertex="1" parent="mhQpvdxV0dP0eFCjO9TV-10">
          <mxGeometry width="153" height="40" as="geometry">
            <mxRectangle width="153" height="40" as="alternateBounds" />
          </mxGeometry>
        </mxCell>
        <mxCell id="mhQpvdxV0dP0eFCjO9TV-81" style="shape=tableRow;horizontal=0;startSize=0;swimlaneHead=0;swimlaneBody=0;strokeColor=inherit;top=0;left=0;bottom=0;right=0;collapsible=0;dropTarget=0;fillColor=none;points=[[0,0.5],[1,0.5]];portConstraint=eastwest;" vertex="1" parent="mhQpvdxV0dP0eFCjO9TV-3">
          <mxGeometry y="160" width="153" height="40" as="geometry" />
        </mxCell>
        <mxCell id="mhQpvdxV0dP0eFCjO9TV-82" value="第一个可变参数va1" style="shape=partialRectangle;html=1;whiteSpace=wrap;connectable=0;strokeColor=inherit;overflow=hidden;fillColor=none;top=0;left=0;bottom=0;right=0;pointerEvents=1;fontSize=16;fontFamily=Comic Sans MS;" vertex="1" parent="mhQpvdxV0dP0eFCjO9TV-81">
          <mxGeometry width="153" height="40" as="geometry">
            <mxRectangle width="153" height="40" as="alternateBounds" />
          </mxGeometry>
        </mxCell>
        <mxCell id="mhQpvdxV0dP0eFCjO9TV-78" style="shape=tableRow;horizontal=0;startSize=0;swimlaneHead=0;swimlaneBody=0;strokeColor=inherit;top=0;left=0;bottom=0;right=0;collapsible=0;dropTarget=0;fillColor=none;points=[[0,0.5],[1,0.5]];portConstraint=eastwest;" vertex="1" parent="mhQpvdxV0dP0eFCjO9TV-3">
          <mxGeometry y="200" width="153" height="40" as="geometry" />
        </mxCell>
        <mxCell id="mhQpvdxV0dP0eFCjO9TV-79" value="第二个可变参数va1" style="shape=partialRectangle;html=1;whiteSpace=wrap;connectable=0;strokeColor=inherit;overflow=hidden;fillColor=none;top=0;left=0;bottom=0;right=0;pointerEvents=1;fontSize=16;fontFamily=Comic Sans MS;" vertex="1" parent="mhQpvdxV0dP0eFCjO9TV-78">
          <mxGeometry width="153" height="40" as="geometry">
            <mxRectangle width="153" height="40" as="alternateBounds" />
          </mxGeometry>
        </mxCell>
        <mxCell id="mhQpvdxV0dP0eFCjO9TV-75" style="shape=tableRow;horizontal=0;startSize=0;swimlaneHead=0;swimlaneBody=0;strokeColor=inherit;top=0;left=0;bottom=0;right=0;collapsible=0;dropTarget=0;fillColor=none;points=[[0,0.5],[1,0.5]];portConstraint=eastwest;" vertex="1" parent="mhQpvdxV0dP0eFCjO9TV-3">
          <mxGeometry y="240" width="153" height="40" as="geometry" />
        </mxCell>
        <mxCell id="mhQpvdxV0dP0eFCjO9TV-76" value="..." style="shape=partialRectangle;html=1;whiteSpace=wrap;connectable=0;strokeColor=inherit;overflow=hidden;fillColor=none;top=0;left=0;bottom=0;right=0;pointerEvents=1;fontSize=16;fontFamily=Comic Sans MS;" vertex="1" parent="mhQpvdxV0dP0eFCjO9TV-75">
          <mxGeometry width="153" height="40" as="geometry">
            <mxRectangle width="153" height="40" as="alternateBounds" />
          </mxGeometry>
        </mxCell>
        <mxCell id="mhQpvdxV0dP0eFCjO9TV-12" value="" style="shape=tableRow;horizontal=0;startSize=0;swimlaneHead=0;swimlaneBody=0;strokeColor=inherit;top=0;left=0;bottom=0;right=0;collapsible=0;dropTarget=0;fillColor=none;points=[[0,0.5],[1,0.5]];portConstraint=eastwest;" vertex="1" parent="mhQpvdxV0dP0eFCjO9TV-3">
          <mxGeometry y="280" width="153" height="40" as="geometry" />
        </mxCell>
        <mxCell id="mhQpvdxV0dP0eFCjO9TV-13" value="函数的最后varN" style="shape=partialRectangle;html=1;whiteSpace=wrap;connectable=0;strokeColor=inherit;overflow=hidden;fillColor=none;top=0;left=0;bottom=0;right=0;pointerEvents=1;fontSize=16;fontFamily=Comic Sans MS;" vertex="1" parent="mhQpvdxV0dP0eFCjO9TV-12">
          <mxGeometry width="153" height="40" as="geometry">
            <mxRectangle width="153" height="40" as="alternateBounds" />
          </mxGeometry>
        </mxCell>
        <mxCell id="mhQpvdxV0dP0eFCjO9TV-137" style="edgeStyle=orthogonalEdgeStyle;rounded=0;orthogonalLoop=1;jettySize=auto;html=1;entryX=1;entryY=0.5;entryDx=0;entryDy=0;" edge="1" parent="1" source="mhQpvdxV0dP0eFCjO9TV-14" target="mhQpvdxV0dP0eFCjO9TV-81">
          <mxGeometry relative="1" as="geometry" />
        </mxCell>
        <mxCell id="mhQpvdxV0dP0eFCjO9TV-14" value="&lt;font face=&quot;Comic Sans MS&quot; style=&quot;font-size: 16px;&quot;&gt;va_list&amp;nbsp;&lt;/font&gt;&lt;span style=&quot;font-size: 16px; font-family: &amp;quot;Comic Sans MS&amp;quot;; color: rgb(51, 51, 51); orphans: 4; text-align: start; background-color: initial;&quot;&gt;arg_ptr&lt;/span&gt;&lt;font face=&quot;Comic Sans MS&quot; style=&quot;font-size: 16px;&quot;&gt;&lt;br&gt;&lt;/font&gt;" style="rounded=1;whiteSpace=wrap;html=1;fillColor=none;strokeColor=none;" vertex="1" parent="1">
          <mxGeometry x="250" y="100" width="120" height="60" as="geometry" />
        </mxCell>
        <mxCell id="mhQpvdxV0dP0eFCjO9TV-15" value="&lt;font face=&quot;Comic Sans MS&quot; style=&quot;font-size: 16px;&quot;&gt;低地址&lt;br&gt;&lt;/font&gt;" style="rounded=1;whiteSpace=wrap;html=1;fillColor=none;strokeColor=none;" vertex="1" parent="1">
          <mxGeometry x="40" y="160" width="120" height="60" as="geometry" />
        </mxCell>
        <mxCell id="mhQpvdxV0dP0eFCjO9TV-16" value="&lt;font face=&quot;Comic Sans MS&quot; style=&quot;font-size: 16px;&quot;&gt;高地址&lt;br&gt;&lt;/font&gt;" style="rounded=1;whiteSpace=wrap;html=1;fillColor=none;strokeColor=none;" vertex="1" parent="1">
          <mxGeometry x="40" y="480" width="120" height="60" as="geometry" />
        </mxCell>
        <mxCell id="mhQpvdxV0dP0eFCjO9TV-71" value="&lt;h2 style=&quot;box-sizing: border-box; break-after: avoid-page; break-inside: avoid; orphans: 4; margin-top: 1rem; margin-bottom: 1rem; position: relative; line-height: 1.225; cursor: text; border-bottom: 1px solid rgb(238, 238, 238); color: rgb(51, 51, 51); text-align: start;&quot; class=&quot;md-end-block md-heading md-focus&quot;&gt;&lt;font style=&quot;font-size: 16px; font-weight: normal;&quot; face=&quot;Comic Sans MS&quot;&gt;va_start(arg_ptr, argN)&lt;/font&gt;&lt;/h2&gt;" style="rounded=1;whiteSpace=wrap;html=1;fillColor=none;strokeColor=none;" vertex="1" parent="1">
          <mxGeometry x="649" y="1063" width="220" height="60" as="geometry" />
        </mxCell>
        <mxCell id="mhQpvdxV0dP0eFCjO9TV-109" value="" style="shape=table;startSize=0;container=1;collapsible=0;childLayout=tableLayout;fontSize=16;fontFamily=Comic Sans MS;" vertex="1" parent="1">
          <mxGeometry x="409" y="1033" width="230" height="240" as="geometry" />
        </mxCell>
        <mxCell id="mhQpvdxV0dP0eFCjO9TV-110" value="" style="shape=tableRow;horizontal=0;startSize=0;swimlaneHead=0;swimlaneBody=0;strokeColor=inherit;top=0;left=0;bottom=0;right=0;collapsible=0;dropTarget=0;fillColor=none;points=[[0,0.5],[1,0.5]];portConstraint=eastwest;" vertex="1" parent="mhQpvdxV0dP0eFCjO9TV-109">
          <mxGeometry width="230" height="40" as="geometry" />
        </mxCell>
        <mxCell id="mhQpvdxV0dP0eFCjO9TV-111" value="固定参数val1" style="shape=partialRectangle;html=1;whiteSpace=wrap;connectable=0;strokeColor=inherit;overflow=hidden;fillColor=none;top=0;left=0;bottom=0;right=0;pointerEvents=1;fontSize=16;fontFamily=Comic Sans MS;" vertex="1" parent="mhQpvdxV0dP0eFCjO9TV-110">
          <mxGeometry width="153" height="40" as="geometry">
            <mxRectangle width="153" height="40" as="alternateBounds" />
          </mxGeometry>
        </mxCell>
        <mxCell id="mhQpvdxV0dP0eFCjO9TV-112" value="9" style="shape=partialRectangle;html=1;whiteSpace=wrap;connectable=0;strokeColor=inherit;overflow=hidden;fillColor=none;top=0;left=0;bottom=0;right=0;pointerEvents=1;fontSize=16;fontFamily=Comic Sans MS;" vertex="1" parent="mhQpvdxV0dP0eFCjO9TV-110">
          <mxGeometry x="153" width="77" height="40" as="geometry">
            <mxRectangle width="77" height="40" as="alternateBounds" />
          </mxGeometry>
        </mxCell>
        <mxCell id="mhQpvdxV0dP0eFCjO9TV-122" style="shape=tableRow;horizontal=0;startSize=0;swimlaneHead=0;swimlaneBody=0;strokeColor=inherit;top=0;left=0;bottom=0;right=0;collapsible=0;dropTarget=0;fillColor=none;points=[[0,0.5],[1,0.5]];portConstraint=eastwest;" vertex="1" parent="mhQpvdxV0dP0eFCjO9TV-109">
          <mxGeometry y="40" width="230" height="40" as="geometry" />
        </mxCell>
        <mxCell id="mhQpvdxV0dP0eFCjO9TV-123" value="第一个可变参数va1" style="shape=partialRectangle;html=1;whiteSpace=wrap;connectable=0;strokeColor=inherit;overflow=hidden;fillColor=none;top=0;left=0;bottom=0;right=0;pointerEvents=1;fontSize=16;fontFamily=Comic Sans MS;" vertex="1" parent="mhQpvdxV0dP0eFCjO9TV-122">
          <mxGeometry width="153" height="40" as="geometry">
            <mxRectangle width="153" height="40" as="alternateBounds" />
          </mxGeometry>
        </mxCell>
        <mxCell id="mhQpvdxV0dP0eFCjO9TV-124" value="9" style="shape=partialRectangle;html=1;whiteSpace=wrap;connectable=0;strokeColor=inherit;overflow=hidden;fillColor=none;top=0;left=0;bottom=0;right=0;pointerEvents=1;fontSize=16;fontFamily=Comic Sans MS;" vertex="1" parent="mhQpvdxV0dP0eFCjO9TV-122">
          <mxGeometry x="153" width="77" height="40" as="geometry">
            <mxRectangle width="77" height="40" as="alternateBounds" />
          </mxGeometry>
        </mxCell>
        <mxCell id="mhQpvdxV0dP0eFCjO9TV-125" style="shape=tableRow;horizontal=0;startSize=0;swimlaneHead=0;swimlaneBody=0;strokeColor=inherit;top=0;left=0;bottom=0;right=0;collapsible=0;dropTarget=0;fillColor=none;points=[[0,0.5],[1,0.5]];portConstraint=eastwest;" vertex="1" parent="mhQpvdxV0dP0eFCjO9TV-109">
          <mxGeometry y="80" width="230" height="40" as="geometry" />
        </mxCell>
        <mxCell id="mhQpvdxV0dP0eFCjO9TV-126" value="第二个可变参数va2" style="shape=partialRectangle;html=1;whiteSpace=wrap;connectable=0;strokeColor=inherit;overflow=hidden;fillColor=none;top=0;left=0;bottom=0;right=0;pointerEvents=1;fontSize=16;fontFamily=Comic Sans MS;" vertex="1" parent="mhQpvdxV0dP0eFCjO9TV-125">
          <mxGeometry width="153" height="40" as="geometry">
            <mxRectangle width="153" height="40" as="alternateBounds" />
          </mxGeometry>
        </mxCell>
        <mxCell id="mhQpvdxV0dP0eFCjO9TV-127" value="5" style="shape=partialRectangle;html=1;whiteSpace=wrap;connectable=0;strokeColor=inherit;overflow=hidden;fillColor=none;top=0;left=0;bottom=0;right=0;pointerEvents=1;fontSize=16;fontFamily=Comic Sans MS;" vertex="1" parent="mhQpvdxV0dP0eFCjO9TV-125">
          <mxGeometry x="153" width="77" height="40" as="geometry">
            <mxRectangle width="77" height="40" as="alternateBounds" />
          </mxGeometry>
        </mxCell>
        <mxCell id="mhQpvdxV0dP0eFCjO9TV-128" style="shape=tableRow;horizontal=0;startSize=0;swimlaneHead=0;swimlaneBody=0;strokeColor=inherit;top=0;left=0;bottom=0;right=0;collapsible=0;dropTarget=0;fillColor=none;points=[[0,0.5],[1,0.5]];portConstraint=eastwest;" vertex="1" parent="mhQpvdxV0dP0eFCjO9TV-109">
          <mxGeometry y="120" width="230" height="40" as="geometry" />
        </mxCell>
        <mxCell id="mhQpvdxV0dP0eFCjO9TV-129" value="第三个可变参数va3" style="shape=partialRectangle;html=1;whiteSpace=wrap;connectable=0;strokeColor=inherit;overflow=hidden;fillColor=none;top=0;left=0;bottom=0;right=0;pointerEvents=1;fontSize=16;fontFamily=Comic Sans MS;" vertex="1" parent="mhQpvdxV0dP0eFCjO9TV-128">
          <mxGeometry width="153" height="40" as="geometry">
            <mxRectangle width="153" height="40" as="alternateBounds" />
          </mxGeometry>
        </mxCell>
        <mxCell id="mhQpvdxV0dP0eFCjO9TV-130" value="2" style="shape=partialRectangle;html=1;whiteSpace=wrap;connectable=0;strokeColor=inherit;overflow=hidden;fillColor=none;top=0;left=0;bottom=0;right=0;pointerEvents=1;fontSize=16;fontFamily=Comic Sans MS;" vertex="1" parent="mhQpvdxV0dP0eFCjO9TV-128">
          <mxGeometry x="153" width="77" height="40" as="geometry">
            <mxRectangle width="77" height="40" as="alternateBounds" />
          </mxGeometry>
        </mxCell>
        <mxCell id="mhQpvdxV0dP0eFCjO9TV-138" style="shape=tableRow;horizontal=0;startSize=0;swimlaneHead=0;swimlaneBody=0;strokeColor=inherit;top=0;left=0;bottom=0;right=0;collapsible=0;dropTarget=0;fillColor=none;points=[[0,0.5],[1,0.5]];portConstraint=eastwest;" vertex="1" parent="mhQpvdxV0dP0eFCjO9TV-109">
          <mxGeometry y="160" width="230" height="40" as="geometry" />
        </mxCell>
        <mxCell id="mhQpvdxV0dP0eFCjO9TV-139" value="第三个可变参数va4" style="shape=partialRectangle;html=1;whiteSpace=wrap;connectable=0;strokeColor=inherit;overflow=hidden;fillColor=none;top=0;left=0;bottom=0;right=0;pointerEvents=1;fontSize=16;fontFamily=Comic Sans MS;" vertex="1" parent="mhQpvdxV0dP0eFCjO9TV-138">
          <mxGeometry width="153" height="40" as="geometry">
            <mxRectangle width="153" height="40" as="alternateBounds" />
          </mxGeometry>
        </mxCell>
        <mxCell id="mhQpvdxV0dP0eFCjO9TV-140" value="7" style="shape=partialRectangle;html=1;whiteSpace=wrap;connectable=0;strokeColor=inherit;overflow=hidden;fillColor=none;top=0;left=0;bottom=0;right=0;pointerEvents=1;fontSize=16;fontFamily=Comic Sans MS;" vertex="1" parent="mhQpvdxV0dP0eFCjO9TV-138">
          <mxGeometry x="153" width="77" height="40" as="geometry">
            <mxRectangle width="77" height="40" as="alternateBounds" />
          </mxGeometry>
        </mxCell>
        <mxCell id="mhQpvdxV0dP0eFCjO9TV-131" value="" style="shape=tableRow;horizontal=0;startSize=0;swimlaneHead=0;swimlaneBody=0;strokeColor=inherit;top=0;left=0;bottom=0;right=0;collapsible=0;dropTarget=0;fillColor=none;points=[[0,0.5],[1,0.5]];portConstraint=eastwest;" vertex="1" parent="mhQpvdxV0dP0eFCjO9TV-109">
          <mxGeometry y="200" width="230" height="40" as="geometry" />
        </mxCell>
        <mxCell id="mhQpvdxV0dP0eFCjO9TV-132" value="函数的最后varN" style="shape=partialRectangle;html=1;whiteSpace=wrap;connectable=0;strokeColor=inherit;overflow=hidden;fillColor=none;top=0;left=0;bottom=0;right=0;pointerEvents=1;fontSize=16;fontFamily=Comic Sans MS;" vertex="1" parent="mhQpvdxV0dP0eFCjO9TV-131">
          <mxGeometry width="153" height="40" as="geometry">
            <mxRectangle width="153" height="40" as="alternateBounds" />
          </mxGeometry>
        </mxCell>
        <mxCell id="mhQpvdxV0dP0eFCjO9TV-133" value="-1" style="shape=partialRectangle;html=1;whiteSpace=wrap;connectable=0;strokeColor=inherit;overflow=hidden;fillColor=none;top=0;left=0;bottom=0;right=0;pointerEvents=1;fontSize=16;fontFamily=Comic Sans MS;" vertex="1" parent="mhQpvdxV0dP0eFCjO9TV-131">
          <mxGeometry x="153" width="77" height="40" as="geometry">
            <mxRectangle width="77" height="40" as="alternateBounds" />
          </mxGeometry>
        </mxCell>
        <mxCell id="mhQpvdxV0dP0eFCjO9TV-141" style="edgeStyle=orthogonalEdgeStyle;rounded=0;orthogonalLoop=1;jettySize=auto;html=1;entryX=0;entryY=0.5;entryDx=0;entryDy=0;" edge="1" parent="1" source="mhQpvdxV0dP0eFCjO9TV-134" target="mhQpvdxV0dP0eFCjO9TV-122">
          <mxGeometry relative="1" as="geometry">
            <Array as="points">
              <mxPoint x="399" y="1003" />
              <mxPoint x="339" y="1003" />
              <mxPoint x="339" y="1093" />
            </Array>
          </mxGeometry>
        </mxCell>
        <mxCell id="mhQpvdxV0dP0eFCjO9TV-134" value="&lt;font face=&quot;Comic Sans MS&quot; style=&quot;font-size: 16px;&quot;&gt;va_list&amp;nbsp;&lt;/font&gt;&lt;span style=&quot;font-size: 16px; font-family: &amp;quot;Comic Sans MS&amp;quot;; color: rgb(51, 51, 51); orphans: 4; text-align: start; background-color: initial;&quot;&gt;arg_ptr&lt;/span&gt;&lt;font face=&quot;Comic Sans MS&quot; style=&quot;font-size: 16px;&quot;&gt;&lt;br&gt;&lt;/font&gt;" style="rounded=1;whiteSpace=wrap;html=1;fillColor=none;strokeColor=none;" vertex="1" parent="1">
          <mxGeometry x="339" y="933" width="120" height="60" as="geometry" />
        </mxCell>
        <mxCell id="mhQpvdxV0dP0eFCjO9TV-135" value="&lt;font face=&quot;Comic Sans MS&quot; style=&quot;font-size: 16px;&quot;&gt;低地址&lt;br&gt;&lt;/font&gt;" style="rounded=1;whiteSpace=wrap;html=1;fillColor=none;strokeColor=none;" vertex="1" parent="1">
          <mxGeometry x="319" y="1003" width="120" height="60" as="geometry" />
        </mxCell>
        <mxCell id="mhQpvdxV0dP0eFCjO9TV-136" value="&lt;font face=&quot;Comic Sans MS&quot; style=&quot;font-size: 16px;&quot;&gt;高地址&lt;br&gt;&lt;/font&gt;" style="rounded=1;whiteSpace=wrap;html=1;fillColor=none;strokeColor=none;" vertex="1" parent="1">
          <mxGeometry x="319" y="1243" width="120" height="60" as="geometry" />
        </mxCell>
        <mxCell id="mhQpvdxV0dP0eFCjO9TV-144" style="edgeStyle=orthogonalEdgeStyle;rounded=0;orthogonalLoop=1;jettySize=auto;html=1;exitX=0;exitY=0.5;exitDx=0;exitDy=0;" edge="1" parent="1" source="mhQpvdxV0dP0eFCjO9TV-143" target="mhQpvdxV0dP0eFCjO9TV-110">
          <mxGeometry relative="1" as="geometry" />
        </mxCell>
        <mxCell id="mhQpvdxV0dP0eFCjO9TV-143" value="&lt;h2 style=&quot;border-bottom: 1px solid rgb(238, 238, 238); box-sizing: border-box; break-after: avoid-page; break-inside: avoid; orphans: 4; margin-top: 1rem; margin-bottom: 1rem; position: relative; line-height: 1.225; cursor: text; color: rgb(51, 51, 51); text-align: start;&quot; class=&quot;md-end-block md-heading md-focus&quot;&gt;&lt;font style=&quot;border-color: var(--border-color); font-size: 16px; font-weight: normal;&quot; face=&quot;Comic Sans MS&quot;&gt;argN&lt;/font&gt;&lt;/h2&gt;" style="rounded=1;whiteSpace=wrap;html=1;fillColor=none;strokeColor=none;" vertex="1" parent="1">
          <mxGeometry x="779" y="1023" width="90" height="60" as="geometry" />
        </mxCell>
        <mxCell id="mhQpvdxV0dP0eFCjO9TV-145" value="&lt;h2 style=&quot;box-sizing: border-box; break-after: avoid-page; break-inside: avoid; orphans: 4; margin-top: 1rem; margin-bottom: 1rem; position: relative; line-height: 1.225; cursor: text; border-bottom: 1px solid rgb(238, 238, 238); color: rgb(51, 51, 51); text-align: start;&quot; class=&quot;md-end-block md-heading md-focus&quot;&gt;&lt;font style=&quot;font-size: 16px; font-weight: normal;&quot; face=&quot;Comic Sans MS&quot;&gt;va_arg(arg_ptr, int)返回9&lt;/font&gt;&lt;/h2&gt;" style="rounded=1;whiteSpace=wrap;html=1;fillColor=none;strokeColor=none;" vertex="1" parent="1">
          <mxGeometry x="1330" y="210" width="220" height="60" as="geometry" />
        </mxCell>
        <mxCell id="mhQpvdxV0dP0eFCjO9TV-146" value="" style="shape=table;startSize=0;container=1;collapsible=0;childLayout=tableLayout;fontSize=16;fontFamily=Comic Sans MS;" vertex="1" parent="1">
          <mxGeometry x="1090" y="180" width="230" height="240" as="geometry" />
        </mxCell>
        <mxCell id="mhQpvdxV0dP0eFCjO9TV-147" value="" style="shape=tableRow;horizontal=0;startSize=0;swimlaneHead=0;swimlaneBody=0;strokeColor=inherit;top=0;left=0;bottom=0;right=0;collapsible=0;dropTarget=0;fillColor=none;points=[[0,0.5],[1,0.5]];portConstraint=eastwest;" vertex="1" parent="mhQpvdxV0dP0eFCjO9TV-146">
          <mxGeometry width="230" height="40" as="geometry" />
        </mxCell>
        <mxCell id="mhQpvdxV0dP0eFCjO9TV-148" value="固定参数val1" style="shape=partialRectangle;html=1;whiteSpace=wrap;connectable=0;strokeColor=inherit;overflow=hidden;fillColor=none;top=0;left=0;bottom=0;right=0;pointerEvents=1;fontSize=16;fontFamily=Comic Sans MS;" vertex="1" parent="mhQpvdxV0dP0eFCjO9TV-147">
          <mxGeometry width="153" height="40" as="geometry">
            <mxRectangle width="153" height="40" as="alternateBounds" />
          </mxGeometry>
        </mxCell>
        <mxCell id="mhQpvdxV0dP0eFCjO9TV-149" value="9" style="shape=partialRectangle;html=1;whiteSpace=wrap;connectable=0;strokeColor=inherit;overflow=hidden;fillColor=none;top=0;left=0;bottom=0;right=0;pointerEvents=1;fontSize=16;fontFamily=Comic Sans MS;" vertex="1" parent="mhQpvdxV0dP0eFCjO9TV-147">
          <mxGeometry x="153" width="77" height="40" as="geometry">
            <mxRectangle width="77" height="40" as="alternateBounds" />
          </mxGeometry>
        </mxCell>
        <mxCell id="mhQpvdxV0dP0eFCjO9TV-150" style="shape=tableRow;horizontal=0;startSize=0;swimlaneHead=0;swimlaneBody=0;strokeColor=inherit;top=0;left=0;bottom=0;right=0;collapsible=0;dropTarget=0;fillColor=none;points=[[0,0.5],[1,0.5]];portConstraint=eastwest;" vertex="1" parent="mhQpvdxV0dP0eFCjO9TV-146">
          <mxGeometry y="40" width="230" height="40" as="geometry" />
        </mxCell>
        <mxCell id="mhQpvdxV0dP0eFCjO9TV-151" value="第一个可变参数va1" style="shape=partialRectangle;html=1;whiteSpace=wrap;connectable=0;strokeColor=inherit;overflow=hidden;fillColor=none;top=0;left=0;bottom=0;right=0;pointerEvents=1;fontSize=16;fontFamily=Comic Sans MS;" vertex="1" parent="mhQpvdxV0dP0eFCjO9TV-150">
          <mxGeometry width="153" height="40" as="geometry">
            <mxRectangle width="153" height="40" as="alternateBounds" />
          </mxGeometry>
        </mxCell>
        <mxCell id="mhQpvdxV0dP0eFCjO9TV-152" value="9" style="shape=partialRectangle;html=1;whiteSpace=wrap;connectable=0;strokeColor=inherit;overflow=hidden;fillColor=none;top=0;left=0;bottom=0;right=0;pointerEvents=1;fontSize=16;fontFamily=Comic Sans MS;" vertex="1" parent="mhQpvdxV0dP0eFCjO9TV-150">
          <mxGeometry x="153" width="77" height="40" as="geometry">
            <mxRectangle width="77" height="40" as="alternateBounds" />
          </mxGeometry>
        </mxCell>
        <mxCell id="mhQpvdxV0dP0eFCjO9TV-153" style="shape=tableRow;horizontal=0;startSize=0;swimlaneHead=0;swimlaneBody=0;strokeColor=inherit;top=0;left=0;bottom=0;right=0;collapsible=0;dropTarget=0;fillColor=none;points=[[0,0.5],[1,0.5]];portConstraint=eastwest;" vertex="1" parent="mhQpvdxV0dP0eFCjO9TV-146">
          <mxGeometry y="80" width="230" height="40" as="geometry" />
        </mxCell>
        <mxCell id="mhQpvdxV0dP0eFCjO9TV-154" value="第二个可变参数va2" style="shape=partialRectangle;html=1;whiteSpace=wrap;connectable=0;strokeColor=inherit;overflow=hidden;fillColor=none;top=0;left=0;bottom=0;right=0;pointerEvents=1;fontSize=16;fontFamily=Comic Sans MS;" vertex="1" parent="mhQpvdxV0dP0eFCjO9TV-153">
          <mxGeometry width="153" height="40" as="geometry">
            <mxRectangle width="153" height="40" as="alternateBounds" />
          </mxGeometry>
        </mxCell>
        <mxCell id="mhQpvdxV0dP0eFCjO9TV-155" value="5" style="shape=partialRectangle;html=1;whiteSpace=wrap;connectable=0;strokeColor=inherit;overflow=hidden;fillColor=none;top=0;left=0;bottom=0;right=0;pointerEvents=1;fontSize=16;fontFamily=Comic Sans MS;" vertex="1" parent="mhQpvdxV0dP0eFCjO9TV-153">
          <mxGeometry x="153" width="77" height="40" as="geometry">
            <mxRectangle width="77" height="40" as="alternateBounds" />
          </mxGeometry>
        </mxCell>
        <mxCell id="mhQpvdxV0dP0eFCjO9TV-156" style="shape=tableRow;horizontal=0;startSize=0;swimlaneHead=0;swimlaneBody=0;strokeColor=inherit;top=0;left=0;bottom=0;right=0;collapsible=0;dropTarget=0;fillColor=none;points=[[0,0.5],[1,0.5]];portConstraint=eastwest;" vertex="1" parent="mhQpvdxV0dP0eFCjO9TV-146">
          <mxGeometry y="120" width="230" height="40" as="geometry" />
        </mxCell>
        <mxCell id="mhQpvdxV0dP0eFCjO9TV-157" value="第三个可变参数va3" style="shape=partialRectangle;html=1;whiteSpace=wrap;connectable=0;strokeColor=inherit;overflow=hidden;fillColor=none;top=0;left=0;bottom=0;right=0;pointerEvents=1;fontSize=16;fontFamily=Comic Sans MS;" vertex="1" parent="mhQpvdxV0dP0eFCjO9TV-156">
          <mxGeometry width="153" height="40" as="geometry">
            <mxRectangle width="153" height="40" as="alternateBounds" />
          </mxGeometry>
        </mxCell>
        <mxCell id="mhQpvdxV0dP0eFCjO9TV-158" value="2" style="shape=partialRectangle;html=1;whiteSpace=wrap;connectable=0;strokeColor=inherit;overflow=hidden;fillColor=none;top=0;left=0;bottom=0;right=0;pointerEvents=1;fontSize=16;fontFamily=Comic Sans MS;" vertex="1" parent="mhQpvdxV0dP0eFCjO9TV-156">
          <mxGeometry x="153" width="77" height="40" as="geometry">
            <mxRectangle width="77" height="40" as="alternateBounds" />
          </mxGeometry>
        </mxCell>
        <mxCell id="mhQpvdxV0dP0eFCjO9TV-159" style="shape=tableRow;horizontal=0;startSize=0;swimlaneHead=0;swimlaneBody=0;strokeColor=inherit;top=0;left=0;bottom=0;right=0;collapsible=0;dropTarget=0;fillColor=none;points=[[0,0.5],[1,0.5]];portConstraint=eastwest;" vertex="1" parent="mhQpvdxV0dP0eFCjO9TV-146">
          <mxGeometry y="160" width="230" height="40" as="geometry" />
        </mxCell>
        <mxCell id="mhQpvdxV0dP0eFCjO9TV-160" value="第三个可变参数va4" style="shape=partialRectangle;html=1;whiteSpace=wrap;connectable=0;strokeColor=inherit;overflow=hidden;fillColor=none;top=0;left=0;bottom=0;right=0;pointerEvents=1;fontSize=16;fontFamily=Comic Sans MS;" vertex="1" parent="mhQpvdxV0dP0eFCjO9TV-159">
          <mxGeometry width="153" height="40" as="geometry">
            <mxRectangle width="153" height="40" as="alternateBounds" />
          </mxGeometry>
        </mxCell>
        <mxCell id="mhQpvdxV0dP0eFCjO9TV-161" value="7" style="shape=partialRectangle;html=1;whiteSpace=wrap;connectable=0;strokeColor=inherit;overflow=hidden;fillColor=none;top=0;left=0;bottom=0;right=0;pointerEvents=1;fontSize=16;fontFamily=Comic Sans MS;" vertex="1" parent="mhQpvdxV0dP0eFCjO9TV-159">
          <mxGeometry x="153" width="77" height="40" as="geometry">
            <mxRectangle width="77" height="40" as="alternateBounds" />
          </mxGeometry>
        </mxCell>
        <mxCell id="mhQpvdxV0dP0eFCjO9TV-162" value="" style="shape=tableRow;horizontal=0;startSize=0;swimlaneHead=0;swimlaneBody=0;strokeColor=inherit;top=0;left=0;bottom=0;right=0;collapsible=0;dropTarget=0;fillColor=none;points=[[0,0.5],[1,0.5]];portConstraint=eastwest;" vertex="1" parent="mhQpvdxV0dP0eFCjO9TV-146">
          <mxGeometry y="200" width="230" height="40" as="geometry" />
        </mxCell>
        <mxCell id="mhQpvdxV0dP0eFCjO9TV-163" value="函数的最后varN" style="shape=partialRectangle;html=1;whiteSpace=wrap;connectable=0;strokeColor=inherit;overflow=hidden;fillColor=none;top=0;left=0;bottom=0;right=0;pointerEvents=1;fontSize=16;fontFamily=Comic Sans MS;" vertex="1" parent="mhQpvdxV0dP0eFCjO9TV-162">
          <mxGeometry width="153" height="40" as="geometry">
            <mxRectangle width="153" height="40" as="alternateBounds" />
          </mxGeometry>
        </mxCell>
        <mxCell id="mhQpvdxV0dP0eFCjO9TV-164" value="-1" style="shape=partialRectangle;html=1;whiteSpace=wrap;connectable=0;strokeColor=inherit;overflow=hidden;fillColor=none;top=0;left=0;bottom=0;right=0;pointerEvents=1;fontSize=16;fontFamily=Comic Sans MS;" vertex="1" parent="mhQpvdxV0dP0eFCjO9TV-162">
          <mxGeometry x="153" width="77" height="40" as="geometry">
            <mxRectangle width="77" height="40" as="alternateBounds" />
          </mxGeometry>
        </mxCell>
        <mxCell id="mhQpvdxV0dP0eFCjO9TV-165" style="edgeStyle=orthogonalEdgeStyle;rounded=0;orthogonalLoop=1;jettySize=auto;html=1;entryX=0;entryY=0.5;entryDx=0;entryDy=0;" edge="1" source="mhQpvdxV0dP0eFCjO9TV-166" target="mhQpvdxV0dP0eFCjO9TV-153" parent="1">
          <mxGeometry relative="1" as="geometry">
            <Array as="points">
              <mxPoint x="1080" y="150" />
              <mxPoint x="1020" y="150" />
              <mxPoint x="1020" y="280" />
            </Array>
          </mxGeometry>
        </mxCell>
        <mxCell id="mhQpvdxV0dP0eFCjO9TV-166" value="&lt;font face=&quot;Comic Sans MS&quot; style=&quot;font-size: 16px;&quot;&gt;va_list&amp;nbsp;&lt;/font&gt;&lt;span style=&quot;font-size: 16px; font-family: &amp;quot;Comic Sans MS&amp;quot;; color: rgb(51, 51, 51); orphans: 4; text-align: start; background-color: initial;&quot;&gt;arg_ptr&lt;/span&gt;&lt;font face=&quot;Comic Sans MS&quot; style=&quot;font-size: 16px;&quot;&gt;&lt;br&gt;&lt;/font&gt;" style="rounded=1;whiteSpace=wrap;html=1;fillColor=none;strokeColor=none;" vertex="1" parent="1">
          <mxGeometry x="1020" y="80" width="120" height="60" as="geometry" />
        </mxCell>
        <mxCell id="mhQpvdxV0dP0eFCjO9TV-167" value="&lt;font face=&quot;Comic Sans MS&quot; style=&quot;font-size: 16px;&quot;&gt;低地址&lt;br&gt;&lt;/font&gt;" style="rounded=1;whiteSpace=wrap;html=1;fillColor=none;strokeColor=none;" vertex="1" parent="1">
          <mxGeometry x="1000" y="150" width="120" height="60" as="geometry" />
        </mxCell>
        <mxCell id="mhQpvdxV0dP0eFCjO9TV-168" value="&lt;font face=&quot;Comic Sans MS&quot; style=&quot;font-size: 16px;&quot;&gt;高地址&lt;br&gt;&lt;/font&gt;" style="rounded=1;whiteSpace=wrap;html=1;fillColor=none;strokeColor=none;" vertex="1" parent="1">
          <mxGeometry x="1000" y="390" width="120" height="60" as="geometry" />
        </mxCell>
        <mxCell id="mhQpvdxV0dP0eFCjO9TV-169" style="edgeStyle=orthogonalEdgeStyle;rounded=0;orthogonalLoop=1;jettySize=auto;html=1;exitX=0;exitY=0.5;exitDx=0;exitDy=0;" edge="1" source="mhQpvdxV0dP0eFCjO9TV-170" target="mhQpvdxV0dP0eFCjO9TV-147" parent="1">
          <mxGeometry relative="1" as="geometry" />
        </mxCell>
        <mxCell id="mhQpvdxV0dP0eFCjO9TV-170" value="&lt;h2 style=&quot;border-bottom: 1px solid rgb(238, 238, 238); box-sizing: border-box; break-after: avoid-page; break-inside: avoid; orphans: 4; margin-top: 1rem; margin-bottom: 1rem; position: relative; line-height: 1.225; cursor: text; color: rgb(51, 51, 51); text-align: start;&quot; class=&quot;md-end-block md-heading md-focus&quot;&gt;&lt;font style=&quot;border-color: var(--border-color); font-size: 16px; font-weight: normal;&quot;&gt;argN&lt;/font&gt;&lt;/h2&gt;" style="rounded=1;whiteSpace=wrap;html=1;fillColor=none;strokeColor=none;fontFamily=Comic Sans MS;verticalAlign=middle;" vertex="1" parent="1">
          <mxGeometry x="1460" y="170" width="90" height="60" as="geometry" />
        </mxCell>
        <mxCell id="mhQpvdxV0dP0eFCjO9TV-171" value="&lt;h2 style=&quot;box-sizing: border-box; break-after: avoid-page; break-inside: avoid; orphans: 4; margin-top: 1rem; margin-bottom: 1rem; position: relative; line-height: 1.225; cursor: text; border-bottom: 1px solid rgb(238, 238, 238); color: rgb(51, 51, 51); text-align: start;&quot; class=&quot;md-end-block md-heading md-focus&quot;&gt;&lt;font style=&quot;font-size: 16px; font-weight: normal;&quot; face=&quot;Comic Sans MS&quot;&gt;va_arg(arg_ptr, int)返回5&lt;/font&gt;&lt;/h2&gt;" style="rounded=1;whiteSpace=wrap;html=1;fillColor=none;strokeColor=none;" vertex="1" parent="1">
          <mxGeometry x="1890" y="260" width="220" height="60" as="geometry" />
        </mxCell>
        <mxCell id="mhQpvdxV0dP0eFCjO9TV-172" value="" style="shape=table;startSize=0;container=1;collapsible=0;childLayout=tableLayout;fontSize=16;fontFamily=Comic Sans MS;" vertex="1" parent="1">
          <mxGeometry x="1650" y="190" width="230" height="240" as="geometry" />
        </mxCell>
        <mxCell id="mhQpvdxV0dP0eFCjO9TV-173" value="" style="shape=tableRow;horizontal=0;startSize=0;swimlaneHead=0;swimlaneBody=0;strokeColor=inherit;top=0;left=0;bottom=0;right=0;collapsible=0;dropTarget=0;fillColor=none;points=[[0,0.5],[1,0.5]];portConstraint=eastwest;" vertex="1" parent="mhQpvdxV0dP0eFCjO9TV-172">
          <mxGeometry width="230" height="40" as="geometry" />
        </mxCell>
        <mxCell id="mhQpvdxV0dP0eFCjO9TV-174" value="固定参数val1" style="shape=partialRectangle;html=1;whiteSpace=wrap;connectable=0;strokeColor=inherit;overflow=hidden;fillColor=none;top=0;left=0;bottom=0;right=0;pointerEvents=1;fontSize=16;fontFamily=Comic Sans MS;" vertex="1" parent="mhQpvdxV0dP0eFCjO9TV-173">
          <mxGeometry width="153" height="40" as="geometry">
            <mxRectangle width="153" height="40" as="alternateBounds" />
          </mxGeometry>
        </mxCell>
        <mxCell id="mhQpvdxV0dP0eFCjO9TV-175" value="9" style="shape=partialRectangle;html=1;whiteSpace=wrap;connectable=0;strokeColor=inherit;overflow=hidden;fillColor=none;top=0;left=0;bottom=0;right=0;pointerEvents=1;fontSize=16;fontFamily=Comic Sans MS;" vertex="1" parent="mhQpvdxV0dP0eFCjO9TV-173">
          <mxGeometry x="153" width="77" height="40" as="geometry">
            <mxRectangle width="77" height="40" as="alternateBounds" />
          </mxGeometry>
        </mxCell>
        <mxCell id="mhQpvdxV0dP0eFCjO9TV-176" style="shape=tableRow;horizontal=0;startSize=0;swimlaneHead=0;swimlaneBody=0;strokeColor=inherit;top=0;left=0;bottom=0;right=0;collapsible=0;dropTarget=0;fillColor=none;points=[[0,0.5],[1,0.5]];portConstraint=eastwest;" vertex="1" parent="mhQpvdxV0dP0eFCjO9TV-172">
          <mxGeometry y="40" width="230" height="40" as="geometry" />
        </mxCell>
        <mxCell id="mhQpvdxV0dP0eFCjO9TV-177" value="第一个可变参数va1" style="shape=partialRectangle;html=1;whiteSpace=wrap;connectable=0;strokeColor=inherit;overflow=hidden;fillColor=none;top=0;left=0;bottom=0;right=0;pointerEvents=1;fontSize=16;fontFamily=Comic Sans MS;" vertex="1" parent="mhQpvdxV0dP0eFCjO9TV-176">
          <mxGeometry width="153" height="40" as="geometry">
            <mxRectangle width="153" height="40" as="alternateBounds" />
          </mxGeometry>
        </mxCell>
        <mxCell id="mhQpvdxV0dP0eFCjO9TV-178" value="9" style="shape=partialRectangle;html=1;whiteSpace=wrap;connectable=0;strokeColor=inherit;overflow=hidden;fillColor=none;top=0;left=0;bottom=0;right=0;pointerEvents=1;fontSize=16;fontFamily=Comic Sans MS;" vertex="1" parent="mhQpvdxV0dP0eFCjO9TV-176">
          <mxGeometry x="153" width="77" height="40" as="geometry">
            <mxRectangle width="77" height="40" as="alternateBounds" />
          </mxGeometry>
        </mxCell>
        <mxCell id="mhQpvdxV0dP0eFCjO9TV-179" style="shape=tableRow;horizontal=0;startSize=0;swimlaneHead=0;swimlaneBody=0;strokeColor=inherit;top=0;left=0;bottom=0;right=0;collapsible=0;dropTarget=0;fillColor=none;points=[[0,0.5],[1,0.5]];portConstraint=eastwest;" vertex="1" parent="mhQpvdxV0dP0eFCjO9TV-172">
          <mxGeometry y="80" width="230" height="40" as="geometry" />
        </mxCell>
        <mxCell id="mhQpvdxV0dP0eFCjO9TV-180" value="第二个可变参数va2" style="shape=partialRectangle;html=1;whiteSpace=wrap;connectable=0;strokeColor=inherit;overflow=hidden;fillColor=none;top=0;left=0;bottom=0;right=0;pointerEvents=1;fontSize=16;fontFamily=Comic Sans MS;" vertex="1" parent="mhQpvdxV0dP0eFCjO9TV-179">
          <mxGeometry width="153" height="40" as="geometry">
            <mxRectangle width="153" height="40" as="alternateBounds" />
          </mxGeometry>
        </mxCell>
        <mxCell id="mhQpvdxV0dP0eFCjO9TV-181" value="5" style="shape=partialRectangle;html=1;whiteSpace=wrap;connectable=0;strokeColor=inherit;overflow=hidden;fillColor=none;top=0;left=0;bottom=0;right=0;pointerEvents=1;fontSize=16;fontFamily=Comic Sans MS;" vertex="1" parent="mhQpvdxV0dP0eFCjO9TV-179">
          <mxGeometry x="153" width="77" height="40" as="geometry">
            <mxRectangle width="77" height="40" as="alternateBounds" />
          </mxGeometry>
        </mxCell>
        <mxCell id="mhQpvdxV0dP0eFCjO9TV-182" style="shape=tableRow;horizontal=0;startSize=0;swimlaneHead=0;swimlaneBody=0;strokeColor=inherit;top=0;left=0;bottom=0;right=0;collapsible=0;dropTarget=0;fillColor=none;points=[[0,0.5],[1,0.5]];portConstraint=eastwest;" vertex="1" parent="mhQpvdxV0dP0eFCjO9TV-172">
          <mxGeometry y="120" width="230" height="40" as="geometry" />
        </mxCell>
        <mxCell id="mhQpvdxV0dP0eFCjO9TV-183" value="第三个可变参数va3" style="shape=partialRectangle;html=1;whiteSpace=wrap;connectable=0;strokeColor=inherit;overflow=hidden;fillColor=none;top=0;left=0;bottom=0;right=0;pointerEvents=1;fontSize=16;fontFamily=Comic Sans MS;" vertex="1" parent="mhQpvdxV0dP0eFCjO9TV-182">
          <mxGeometry width="153" height="40" as="geometry">
            <mxRectangle width="153" height="40" as="alternateBounds" />
          </mxGeometry>
        </mxCell>
        <mxCell id="mhQpvdxV0dP0eFCjO9TV-184" value="2" style="shape=partialRectangle;html=1;whiteSpace=wrap;connectable=0;strokeColor=inherit;overflow=hidden;fillColor=none;top=0;left=0;bottom=0;right=0;pointerEvents=1;fontSize=16;fontFamily=Comic Sans MS;" vertex="1" parent="mhQpvdxV0dP0eFCjO9TV-182">
          <mxGeometry x="153" width="77" height="40" as="geometry">
            <mxRectangle width="77" height="40" as="alternateBounds" />
          </mxGeometry>
        </mxCell>
        <mxCell id="mhQpvdxV0dP0eFCjO9TV-185" style="shape=tableRow;horizontal=0;startSize=0;swimlaneHead=0;swimlaneBody=0;strokeColor=inherit;top=0;left=0;bottom=0;right=0;collapsible=0;dropTarget=0;fillColor=none;points=[[0,0.5],[1,0.5]];portConstraint=eastwest;" vertex="1" parent="mhQpvdxV0dP0eFCjO9TV-172">
          <mxGeometry y="160" width="230" height="40" as="geometry" />
        </mxCell>
        <mxCell id="mhQpvdxV0dP0eFCjO9TV-186" value="第三个可变参数va4" style="shape=partialRectangle;html=1;whiteSpace=wrap;connectable=0;strokeColor=inherit;overflow=hidden;fillColor=none;top=0;left=0;bottom=0;right=0;pointerEvents=1;fontSize=16;fontFamily=Comic Sans MS;" vertex="1" parent="mhQpvdxV0dP0eFCjO9TV-185">
          <mxGeometry width="153" height="40" as="geometry">
            <mxRectangle width="153" height="40" as="alternateBounds" />
          </mxGeometry>
        </mxCell>
        <mxCell id="mhQpvdxV0dP0eFCjO9TV-187" value="7" style="shape=partialRectangle;html=1;whiteSpace=wrap;connectable=0;strokeColor=inherit;overflow=hidden;fillColor=none;top=0;left=0;bottom=0;right=0;pointerEvents=1;fontSize=16;fontFamily=Comic Sans MS;" vertex="1" parent="mhQpvdxV0dP0eFCjO9TV-185">
          <mxGeometry x="153" width="77" height="40" as="geometry">
            <mxRectangle width="77" height="40" as="alternateBounds" />
          </mxGeometry>
        </mxCell>
        <mxCell id="mhQpvdxV0dP0eFCjO9TV-188" value="" style="shape=tableRow;horizontal=0;startSize=0;swimlaneHead=0;swimlaneBody=0;strokeColor=inherit;top=0;left=0;bottom=0;right=0;collapsible=0;dropTarget=0;fillColor=none;points=[[0,0.5],[1,0.5]];portConstraint=eastwest;" vertex="1" parent="mhQpvdxV0dP0eFCjO9TV-172">
          <mxGeometry y="200" width="230" height="40" as="geometry" />
        </mxCell>
        <mxCell id="mhQpvdxV0dP0eFCjO9TV-189" value="函数的最后varN" style="shape=partialRectangle;html=1;whiteSpace=wrap;connectable=0;strokeColor=inherit;overflow=hidden;fillColor=none;top=0;left=0;bottom=0;right=0;pointerEvents=1;fontSize=16;fontFamily=Comic Sans MS;" vertex="1" parent="mhQpvdxV0dP0eFCjO9TV-188">
          <mxGeometry width="153" height="40" as="geometry">
            <mxRectangle width="153" height="40" as="alternateBounds" />
          </mxGeometry>
        </mxCell>
        <mxCell id="mhQpvdxV0dP0eFCjO9TV-190" value="-1" style="shape=partialRectangle;html=1;whiteSpace=wrap;connectable=0;strokeColor=inherit;overflow=hidden;fillColor=none;top=0;left=0;bottom=0;right=0;pointerEvents=1;fontSize=16;fontFamily=Comic Sans MS;" vertex="1" parent="mhQpvdxV0dP0eFCjO9TV-188">
          <mxGeometry x="153" width="77" height="40" as="geometry">
            <mxRectangle width="77" height="40" as="alternateBounds" />
          </mxGeometry>
        </mxCell>
        <mxCell id="mhQpvdxV0dP0eFCjO9TV-191" style="edgeStyle=orthogonalEdgeStyle;rounded=0;orthogonalLoop=1;jettySize=auto;html=1;entryX=0;entryY=0.5;entryDx=0;entryDy=0;" edge="1" source="mhQpvdxV0dP0eFCjO9TV-192" target="mhQpvdxV0dP0eFCjO9TV-182" parent="1">
          <mxGeometry relative="1" as="geometry">
            <Array as="points">
              <mxPoint x="1640" y="160" />
              <mxPoint x="1580" y="160" />
              <mxPoint x="1580" y="330" />
            </Array>
          </mxGeometry>
        </mxCell>
        <mxCell id="mhQpvdxV0dP0eFCjO9TV-192" value="&lt;font face=&quot;Comic Sans MS&quot; style=&quot;font-size: 16px;&quot;&gt;va_list&amp;nbsp;&lt;/font&gt;&lt;span style=&quot;font-size: 16px; font-family: &amp;quot;Comic Sans MS&amp;quot;; color: rgb(51, 51, 51); orphans: 4; text-align: start; background-color: initial;&quot;&gt;arg_ptr&lt;/span&gt;&lt;font face=&quot;Comic Sans MS&quot; style=&quot;font-size: 16px;&quot;&gt;&lt;br&gt;&lt;/font&gt;" style="rounded=1;whiteSpace=wrap;html=1;fillColor=none;strokeColor=none;" vertex="1" parent="1">
          <mxGeometry x="1580" y="90" width="120" height="60" as="geometry" />
        </mxCell>
        <mxCell id="mhQpvdxV0dP0eFCjO9TV-193" style="edgeStyle=orthogonalEdgeStyle;rounded=0;orthogonalLoop=1;jettySize=auto;html=1;exitX=0;exitY=0.5;exitDx=0;exitDy=0;" edge="1" source="mhQpvdxV0dP0eFCjO9TV-194" target="mhQpvdxV0dP0eFCjO9TV-173" parent="1">
          <mxGeometry relative="1" as="geometry" />
        </mxCell>
        <mxCell id="mhQpvdxV0dP0eFCjO9TV-194" value="&lt;h2 style=&quot;border-bottom: 1px solid rgb(238, 238, 238); box-sizing: border-box; break-after: avoid-page; break-inside: avoid; orphans: 4; margin-top: 1rem; margin-bottom: 1rem; position: relative; line-height: 1.225; cursor: text; color: rgb(51, 51, 51); text-align: start;&quot; class=&quot;md-end-block md-heading md-focus&quot;&gt;&lt;font style=&quot;border-color: var(--border-color); font-size: 16px; font-weight: normal;&quot; face=&quot;Comic Sans MS&quot;&gt;argN&lt;/font&gt;&lt;/h2&gt;" style="rounded=1;whiteSpace=wrap;html=1;fillColor=none;strokeColor=none;" vertex="1" parent="1">
          <mxGeometry x="2020" y="180" width="90" height="60" as="geometry" />
        </mxCell>
        <mxCell id="mhQpvdxV0dP0eFCjO9TV-195" value="&lt;h2 style=&quot;box-sizing: border-box; break-after: avoid-page; break-inside: avoid; orphans: 4; margin-top: 1rem; margin-bottom: 1rem; position: relative; line-height: 1.225; cursor: text; border-bottom: 1px solid rgb(238, 238, 238); color: rgb(51, 51, 51); text-align: start;&quot; class=&quot;md-end-block md-heading md-focus&quot;&gt;&lt;font style=&quot;font-size: 16px; font-weight: normal;&quot; face=&quot;Comic Sans MS&quot;&gt;va_arg(arg_ptr, int)返回2&lt;/font&gt;&lt;/h2&gt;" style="rounded=1;whiteSpace=wrap;html=1;fillColor=none;strokeColor=none;" vertex="1" parent="1">
          <mxGeometry x="710" y="710" width="220" height="60" as="geometry" />
        </mxCell>
        <mxCell id="mhQpvdxV0dP0eFCjO9TV-196" value="" style="shape=table;startSize=0;container=1;collapsible=0;childLayout=tableLayout;fontSize=16;fontFamily=Comic Sans MS;" vertex="1" parent="1">
          <mxGeometry x="470" y="600" width="230" height="240" as="geometry" />
        </mxCell>
        <mxCell id="mhQpvdxV0dP0eFCjO9TV-197" value="" style="shape=tableRow;horizontal=0;startSize=0;swimlaneHead=0;swimlaneBody=0;strokeColor=inherit;top=0;left=0;bottom=0;right=0;collapsible=0;dropTarget=0;fillColor=none;points=[[0,0.5],[1,0.5]];portConstraint=eastwest;" vertex="1" parent="mhQpvdxV0dP0eFCjO9TV-196">
          <mxGeometry width="230" height="40" as="geometry" />
        </mxCell>
        <mxCell id="mhQpvdxV0dP0eFCjO9TV-198" value="固定参数val1" style="shape=partialRectangle;html=1;whiteSpace=wrap;connectable=0;strokeColor=inherit;overflow=hidden;fillColor=none;top=0;left=0;bottom=0;right=0;pointerEvents=1;fontSize=16;fontFamily=Comic Sans MS;" vertex="1" parent="mhQpvdxV0dP0eFCjO9TV-197">
          <mxGeometry width="153" height="40" as="geometry">
            <mxRectangle width="153" height="40" as="alternateBounds" />
          </mxGeometry>
        </mxCell>
        <mxCell id="mhQpvdxV0dP0eFCjO9TV-199" value="9" style="shape=partialRectangle;html=1;whiteSpace=wrap;connectable=0;strokeColor=inherit;overflow=hidden;fillColor=none;top=0;left=0;bottom=0;right=0;pointerEvents=1;fontSize=16;fontFamily=Comic Sans MS;" vertex="1" parent="mhQpvdxV0dP0eFCjO9TV-197">
          <mxGeometry x="153" width="77" height="40" as="geometry">
            <mxRectangle width="77" height="40" as="alternateBounds" />
          </mxGeometry>
        </mxCell>
        <mxCell id="mhQpvdxV0dP0eFCjO9TV-200" style="shape=tableRow;horizontal=0;startSize=0;swimlaneHead=0;swimlaneBody=0;strokeColor=inherit;top=0;left=0;bottom=0;right=0;collapsible=0;dropTarget=0;fillColor=none;points=[[0,0.5],[1,0.5]];portConstraint=eastwest;" vertex="1" parent="mhQpvdxV0dP0eFCjO9TV-196">
          <mxGeometry y="40" width="230" height="40" as="geometry" />
        </mxCell>
        <mxCell id="mhQpvdxV0dP0eFCjO9TV-201" value="第一个可变参数va1" style="shape=partialRectangle;html=1;whiteSpace=wrap;connectable=0;strokeColor=inherit;overflow=hidden;fillColor=none;top=0;left=0;bottom=0;right=0;pointerEvents=1;fontSize=16;fontFamily=Comic Sans MS;" vertex="1" parent="mhQpvdxV0dP0eFCjO9TV-200">
          <mxGeometry width="153" height="40" as="geometry">
            <mxRectangle width="153" height="40" as="alternateBounds" />
          </mxGeometry>
        </mxCell>
        <mxCell id="mhQpvdxV0dP0eFCjO9TV-202" value="9" style="shape=partialRectangle;html=1;whiteSpace=wrap;connectable=0;strokeColor=inherit;overflow=hidden;fillColor=none;top=0;left=0;bottom=0;right=0;pointerEvents=1;fontSize=16;fontFamily=Comic Sans MS;" vertex="1" parent="mhQpvdxV0dP0eFCjO9TV-200">
          <mxGeometry x="153" width="77" height="40" as="geometry">
            <mxRectangle width="77" height="40" as="alternateBounds" />
          </mxGeometry>
        </mxCell>
        <mxCell id="mhQpvdxV0dP0eFCjO9TV-203" style="shape=tableRow;horizontal=0;startSize=0;swimlaneHead=0;swimlaneBody=0;strokeColor=inherit;top=0;left=0;bottom=0;right=0;collapsible=0;dropTarget=0;fillColor=none;points=[[0,0.5],[1,0.5]];portConstraint=eastwest;" vertex="1" parent="mhQpvdxV0dP0eFCjO9TV-196">
          <mxGeometry y="80" width="230" height="40" as="geometry" />
        </mxCell>
        <mxCell id="mhQpvdxV0dP0eFCjO9TV-204" value="第二个可变参数va2" style="shape=partialRectangle;html=1;whiteSpace=wrap;connectable=0;strokeColor=inherit;overflow=hidden;fillColor=none;top=0;left=0;bottom=0;right=0;pointerEvents=1;fontSize=16;fontFamily=Comic Sans MS;" vertex="1" parent="mhQpvdxV0dP0eFCjO9TV-203">
          <mxGeometry width="153" height="40" as="geometry">
            <mxRectangle width="153" height="40" as="alternateBounds" />
          </mxGeometry>
        </mxCell>
        <mxCell id="mhQpvdxV0dP0eFCjO9TV-205" value="5" style="shape=partialRectangle;html=1;whiteSpace=wrap;connectable=0;strokeColor=inherit;overflow=hidden;fillColor=none;top=0;left=0;bottom=0;right=0;pointerEvents=1;fontSize=16;fontFamily=Comic Sans MS;" vertex="1" parent="mhQpvdxV0dP0eFCjO9TV-203">
          <mxGeometry x="153" width="77" height="40" as="geometry">
            <mxRectangle width="77" height="40" as="alternateBounds" />
          </mxGeometry>
        </mxCell>
        <mxCell id="mhQpvdxV0dP0eFCjO9TV-206" style="shape=tableRow;horizontal=0;startSize=0;swimlaneHead=0;swimlaneBody=0;strokeColor=inherit;top=0;left=0;bottom=0;right=0;collapsible=0;dropTarget=0;fillColor=none;points=[[0,0.5],[1,0.5]];portConstraint=eastwest;" vertex="1" parent="mhQpvdxV0dP0eFCjO9TV-196">
          <mxGeometry y="120" width="230" height="40" as="geometry" />
        </mxCell>
        <mxCell id="mhQpvdxV0dP0eFCjO9TV-207" value="第三个可变参数va3" style="shape=partialRectangle;html=1;whiteSpace=wrap;connectable=0;strokeColor=inherit;overflow=hidden;fillColor=none;top=0;left=0;bottom=0;right=0;pointerEvents=1;fontSize=16;fontFamily=Comic Sans MS;" vertex="1" parent="mhQpvdxV0dP0eFCjO9TV-206">
          <mxGeometry width="153" height="40" as="geometry">
            <mxRectangle width="153" height="40" as="alternateBounds" />
          </mxGeometry>
        </mxCell>
        <mxCell id="mhQpvdxV0dP0eFCjO9TV-208" value="2" style="shape=partialRectangle;html=1;whiteSpace=wrap;connectable=0;strokeColor=inherit;overflow=hidden;fillColor=none;top=0;left=0;bottom=0;right=0;pointerEvents=1;fontSize=16;fontFamily=Comic Sans MS;" vertex="1" parent="mhQpvdxV0dP0eFCjO9TV-206">
          <mxGeometry x="153" width="77" height="40" as="geometry">
            <mxRectangle width="77" height="40" as="alternateBounds" />
          </mxGeometry>
        </mxCell>
        <mxCell id="mhQpvdxV0dP0eFCjO9TV-209" style="shape=tableRow;horizontal=0;startSize=0;swimlaneHead=0;swimlaneBody=0;strokeColor=inherit;top=0;left=0;bottom=0;right=0;collapsible=0;dropTarget=0;fillColor=none;points=[[0,0.5],[1,0.5]];portConstraint=eastwest;" vertex="1" parent="mhQpvdxV0dP0eFCjO9TV-196">
          <mxGeometry y="160" width="230" height="40" as="geometry" />
        </mxCell>
        <mxCell id="mhQpvdxV0dP0eFCjO9TV-210" value="第三个可变参数va4" style="shape=partialRectangle;html=1;whiteSpace=wrap;connectable=0;strokeColor=inherit;overflow=hidden;fillColor=none;top=0;left=0;bottom=0;right=0;pointerEvents=1;fontSize=16;fontFamily=Comic Sans MS;" vertex="1" parent="mhQpvdxV0dP0eFCjO9TV-209">
          <mxGeometry width="153" height="40" as="geometry">
            <mxRectangle width="153" height="40" as="alternateBounds" />
          </mxGeometry>
        </mxCell>
        <mxCell id="mhQpvdxV0dP0eFCjO9TV-211" value="7" style="shape=partialRectangle;html=1;whiteSpace=wrap;connectable=0;strokeColor=inherit;overflow=hidden;fillColor=none;top=0;left=0;bottom=0;right=0;pointerEvents=1;fontSize=16;fontFamily=Comic Sans MS;" vertex="1" parent="mhQpvdxV0dP0eFCjO9TV-209">
          <mxGeometry x="153" width="77" height="40" as="geometry">
            <mxRectangle width="77" height="40" as="alternateBounds" />
          </mxGeometry>
        </mxCell>
        <mxCell id="mhQpvdxV0dP0eFCjO9TV-212" value="" style="shape=tableRow;horizontal=0;startSize=0;swimlaneHead=0;swimlaneBody=0;strokeColor=inherit;top=0;left=0;bottom=0;right=0;collapsible=0;dropTarget=0;fillColor=none;points=[[0,0.5],[1,0.5]];portConstraint=eastwest;" vertex="1" parent="mhQpvdxV0dP0eFCjO9TV-196">
          <mxGeometry y="200" width="230" height="40" as="geometry" />
        </mxCell>
        <mxCell id="mhQpvdxV0dP0eFCjO9TV-213" value="函数的最后varN" style="shape=partialRectangle;html=1;whiteSpace=wrap;connectable=0;strokeColor=inherit;overflow=hidden;fillColor=none;top=0;left=0;bottom=0;right=0;pointerEvents=1;fontSize=16;fontFamily=Comic Sans MS;" vertex="1" parent="mhQpvdxV0dP0eFCjO9TV-212">
          <mxGeometry width="153" height="40" as="geometry">
            <mxRectangle width="153" height="40" as="alternateBounds" />
          </mxGeometry>
        </mxCell>
        <mxCell id="mhQpvdxV0dP0eFCjO9TV-214" value="-1" style="shape=partialRectangle;html=1;whiteSpace=wrap;connectable=0;strokeColor=inherit;overflow=hidden;fillColor=none;top=0;left=0;bottom=0;right=0;pointerEvents=1;fontSize=16;fontFamily=Comic Sans MS;" vertex="1" parent="mhQpvdxV0dP0eFCjO9TV-212">
          <mxGeometry x="153" width="77" height="40" as="geometry">
            <mxRectangle width="77" height="40" as="alternateBounds" />
          </mxGeometry>
        </mxCell>
        <mxCell id="mhQpvdxV0dP0eFCjO9TV-215" style="edgeStyle=orthogonalEdgeStyle;rounded=0;orthogonalLoop=1;jettySize=auto;html=1;entryX=0;entryY=0.5;entryDx=0;entryDy=0;" edge="1" source="mhQpvdxV0dP0eFCjO9TV-216" target="mhQpvdxV0dP0eFCjO9TV-209" parent="1">
          <mxGeometry relative="1" as="geometry">
            <Array as="points">
              <mxPoint x="460" y="570" />
              <mxPoint x="400" y="570" />
              <mxPoint x="400" y="780" />
            </Array>
          </mxGeometry>
        </mxCell>
        <mxCell id="mhQpvdxV0dP0eFCjO9TV-216" value="&lt;font face=&quot;Comic Sans MS&quot; style=&quot;font-size: 16px;&quot;&gt;va_list&amp;nbsp;&lt;/font&gt;&lt;span style=&quot;font-size: 16px; font-family: &amp;quot;Comic Sans MS&amp;quot;; color: rgb(51, 51, 51); orphans: 4; text-align: start; background-color: initial;&quot;&gt;arg_ptr&lt;/span&gt;&lt;font face=&quot;Comic Sans MS&quot; style=&quot;font-size: 16px;&quot;&gt;&lt;br&gt;&lt;/font&gt;" style="rounded=1;whiteSpace=wrap;html=1;fillColor=none;strokeColor=none;" vertex="1" parent="1">
          <mxGeometry x="400" y="500" width="120" height="60" as="geometry" />
        </mxCell>
        <mxCell id="mhQpvdxV0dP0eFCjO9TV-217" style="edgeStyle=orthogonalEdgeStyle;rounded=0;orthogonalLoop=1;jettySize=auto;html=1;exitX=0;exitY=0.5;exitDx=0;exitDy=0;" edge="1" source="mhQpvdxV0dP0eFCjO9TV-218" target="mhQpvdxV0dP0eFCjO9TV-197" parent="1">
          <mxGeometry relative="1" as="geometry" />
        </mxCell>
        <mxCell id="mhQpvdxV0dP0eFCjO9TV-218" value="&lt;h2 style=&quot;border-bottom: 1px solid rgb(238, 238, 238); box-sizing: border-box; break-after: avoid-page; break-inside: avoid; orphans: 4; margin-top: 1rem; margin-bottom: 1rem; position: relative; line-height: 1.225; cursor: text; color: rgb(51, 51, 51); text-align: start;&quot; class=&quot;md-end-block md-heading md-focus&quot;&gt;&lt;font style=&quot;border-color: var(--border-color); font-size: 16px; font-weight: normal;&quot; face=&quot;Comic Sans MS&quot;&gt;argN&lt;/font&gt;&lt;/h2&gt;" style="rounded=1;whiteSpace=wrap;html=1;fillColor=none;strokeColor=none;" vertex="1" parent="1">
          <mxGeometry x="840" y="590" width="90" height="60" as="geometry" />
        </mxCell>
        <mxCell id="mhQpvdxV0dP0eFCjO9TV-219" value="&lt;h2 style=&quot;box-sizing: border-box; break-after: avoid-page; break-inside: avoid; orphans: 4; margin-top: 1rem; margin-bottom: 1rem; position: relative; line-height: 1.225; cursor: text; border-bottom: 1px solid rgb(238, 238, 238); color: rgb(51, 51, 51); text-align: start;&quot; class=&quot;md-end-block md-heading md-focus&quot;&gt;&lt;font style=&quot;font-size: 16px; font-weight: normal;&quot; face=&quot;Comic Sans MS&quot;&gt;va_arg(arg_ptr, int)返回7&lt;/font&gt;&lt;/h2&gt;" style="rounded=1;whiteSpace=wrap;html=1;fillColor=none;strokeColor=none;" vertex="1" parent="1">
          <mxGeometry x="1260" y="1150" width="220" height="60" as="geometry" />
        </mxCell>
        <mxCell id="mhQpvdxV0dP0eFCjO9TV-220" value="" style="shape=table;startSize=0;container=1;collapsible=0;childLayout=tableLayout;fontSize=16;fontFamily=Comic Sans MS;" vertex="1" parent="1">
          <mxGeometry x="1020" y="1000" width="230" height="240" as="geometry" />
        </mxCell>
        <mxCell id="mhQpvdxV0dP0eFCjO9TV-221" value="" style="shape=tableRow;horizontal=0;startSize=0;swimlaneHead=0;swimlaneBody=0;strokeColor=inherit;top=0;left=0;bottom=0;right=0;collapsible=0;dropTarget=0;fillColor=none;points=[[0,0.5],[1,0.5]];portConstraint=eastwest;" vertex="1" parent="mhQpvdxV0dP0eFCjO9TV-220">
          <mxGeometry width="230" height="40" as="geometry" />
        </mxCell>
        <mxCell id="mhQpvdxV0dP0eFCjO9TV-222" value="固定参数val1" style="shape=partialRectangle;html=1;whiteSpace=wrap;connectable=0;strokeColor=inherit;overflow=hidden;fillColor=none;top=0;left=0;bottom=0;right=0;pointerEvents=1;fontSize=16;fontFamily=Comic Sans MS;" vertex="1" parent="mhQpvdxV0dP0eFCjO9TV-221">
          <mxGeometry width="153" height="40" as="geometry">
            <mxRectangle width="153" height="40" as="alternateBounds" />
          </mxGeometry>
        </mxCell>
        <mxCell id="mhQpvdxV0dP0eFCjO9TV-223" value="9" style="shape=partialRectangle;html=1;whiteSpace=wrap;connectable=0;strokeColor=inherit;overflow=hidden;fillColor=none;top=0;left=0;bottom=0;right=0;pointerEvents=1;fontSize=16;fontFamily=Comic Sans MS;" vertex="1" parent="mhQpvdxV0dP0eFCjO9TV-221">
          <mxGeometry x="153" width="77" height="40" as="geometry">
            <mxRectangle width="77" height="40" as="alternateBounds" />
          </mxGeometry>
        </mxCell>
        <mxCell id="mhQpvdxV0dP0eFCjO9TV-224" style="shape=tableRow;horizontal=0;startSize=0;swimlaneHead=0;swimlaneBody=0;strokeColor=inherit;top=0;left=0;bottom=0;right=0;collapsible=0;dropTarget=0;fillColor=none;points=[[0,0.5],[1,0.5]];portConstraint=eastwest;" vertex="1" parent="mhQpvdxV0dP0eFCjO9TV-220">
          <mxGeometry y="40" width="230" height="40" as="geometry" />
        </mxCell>
        <mxCell id="mhQpvdxV0dP0eFCjO9TV-225" value="第一个可变参数va1" style="shape=partialRectangle;html=1;whiteSpace=wrap;connectable=0;strokeColor=inherit;overflow=hidden;fillColor=none;top=0;left=0;bottom=0;right=0;pointerEvents=1;fontSize=16;fontFamily=Comic Sans MS;" vertex="1" parent="mhQpvdxV0dP0eFCjO9TV-224">
          <mxGeometry width="153" height="40" as="geometry">
            <mxRectangle width="153" height="40" as="alternateBounds" />
          </mxGeometry>
        </mxCell>
        <mxCell id="mhQpvdxV0dP0eFCjO9TV-226" value="9" style="shape=partialRectangle;html=1;whiteSpace=wrap;connectable=0;strokeColor=inherit;overflow=hidden;fillColor=none;top=0;left=0;bottom=0;right=0;pointerEvents=1;fontSize=16;fontFamily=Comic Sans MS;" vertex="1" parent="mhQpvdxV0dP0eFCjO9TV-224">
          <mxGeometry x="153" width="77" height="40" as="geometry">
            <mxRectangle width="77" height="40" as="alternateBounds" />
          </mxGeometry>
        </mxCell>
        <mxCell id="mhQpvdxV0dP0eFCjO9TV-227" style="shape=tableRow;horizontal=0;startSize=0;swimlaneHead=0;swimlaneBody=0;strokeColor=inherit;top=0;left=0;bottom=0;right=0;collapsible=0;dropTarget=0;fillColor=none;points=[[0,0.5],[1,0.5]];portConstraint=eastwest;" vertex="1" parent="mhQpvdxV0dP0eFCjO9TV-220">
          <mxGeometry y="80" width="230" height="40" as="geometry" />
        </mxCell>
        <mxCell id="mhQpvdxV0dP0eFCjO9TV-228" value="第二个可变参数va2" style="shape=partialRectangle;html=1;whiteSpace=wrap;connectable=0;strokeColor=inherit;overflow=hidden;fillColor=none;top=0;left=0;bottom=0;right=0;pointerEvents=1;fontSize=16;fontFamily=Comic Sans MS;" vertex="1" parent="mhQpvdxV0dP0eFCjO9TV-227">
          <mxGeometry width="153" height="40" as="geometry">
            <mxRectangle width="153" height="40" as="alternateBounds" />
          </mxGeometry>
        </mxCell>
        <mxCell id="mhQpvdxV0dP0eFCjO9TV-229" value="5" style="shape=partialRectangle;html=1;whiteSpace=wrap;connectable=0;strokeColor=inherit;overflow=hidden;fillColor=none;top=0;left=0;bottom=0;right=0;pointerEvents=1;fontSize=16;fontFamily=Comic Sans MS;" vertex="1" parent="mhQpvdxV0dP0eFCjO9TV-227">
          <mxGeometry x="153" width="77" height="40" as="geometry">
            <mxRectangle width="77" height="40" as="alternateBounds" />
          </mxGeometry>
        </mxCell>
        <mxCell id="mhQpvdxV0dP0eFCjO9TV-230" style="shape=tableRow;horizontal=0;startSize=0;swimlaneHead=0;swimlaneBody=0;strokeColor=inherit;top=0;left=0;bottom=0;right=0;collapsible=0;dropTarget=0;fillColor=none;points=[[0,0.5],[1,0.5]];portConstraint=eastwest;" vertex="1" parent="mhQpvdxV0dP0eFCjO9TV-220">
          <mxGeometry y="120" width="230" height="40" as="geometry" />
        </mxCell>
        <mxCell id="mhQpvdxV0dP0eFCjO9TV-231" value="第三个可变参数va3" style="shape=partialRectangle;html=1;whiteSpace=wrap;connectable=0;strokeColor=inherit;overflow=hidden;fillColor=none;top=0;left=0;bottom=0;right=0;pointerEvents=1;fontSize=16;fontFamily=Comic Sans MS;" vertex="1" parent="mhQpvdxV0dP0eFCjO9TV-230">
          <mxGeometry width="153" height="40" as="geometry">
            <mxRectangle width="153" height="40" as="alternateBounds" />
          </mxGeometry>
        </mxCell>
        <mxCell id="mhQpvdxV0dP0eFCjO9TV-232" value="2" style="shape=partialRectangle;html=1;whiteSpace=wrap;connectable=0;strokeColor=inherit;overflow=hidden;fillColor=none;top=0;left=0;bottom=0;right=0;pointerEvents=1;fontSize=16;fontFamily=Comic Sans MS;" vertex="1" parent="mhQpvdxV0dP0eFCjO9TV-230">
          <mxGeometry x="153" width="77" height="40" as="geometry">
            <mxRectangle width="77" height="40" as="alternateBounds" />
          </mxGeometry>
        </mxCell>
        <mxCell id="mhQpvdxV0dP0eFCjO9TV-233" style="shape=tableRow;horizontal=0;startSize=0;swimlaneHead=0;swimlaneBody=0;strokeColor=inherit;top=0;left=0;bottom=0;right=0;collapsible=0;dropTarget=0;fillColor=none;points=[[0,0.5],[1,0.5]];portConstraint=eastwest;" vertex="1" parent="mhQpvdxV0dP0eFCjO9TV-220">
          <mxGeometry y="160" width="230" height="40" as="geometry" />
        </mxCell>
        <mxCell id="mhQpvdxV0dP0eFCjO9TV-234" value="第三个可变参数va4" style="shape=partialRectangle;html=1;whiteSpace=wrap;connectable=0;strokeColor=inherit;overflow=hidden;fillColor=none;top=0;left=0;bottom=0;right=0;pointerEvents=1;fontSize=16;fontFamily=Comic Sans MS;" vertex="1" parent="mhQpvdxV0dP0eFCjO9TV-233">
          <mxGeometry width="153" height="40" as="geometry">
            <mxRectangle width="153" height="40" as="alternateBounds" />
          </mxGeometry>
        </mxCell>
        <mxCell id="mhQpvdxV0dP0eFCjO9TV-235" value="7" style="shape=partialRectangle;html=1;whiteSpace=wrap;connectable=0;strokeColor=inherit;overflow=hidden;fillColor=none;top=0;left=0;bottom=0;right=0;pointerEvents=1;fontSize=16;fontFamily=Comic Sans MS;" vertex="1" parent="mhQpvdxV0dP0eFCjO9TV-233">
          <mxGeometry x="153" width="77" height="40" as="geometry">
            <mxRectangle width="77" height="40" as="alternateBounds" />
          </mxGeometry>
        </mxCell>
        <mxCell id="mhQpvdxV0dP0eFCjO9TV-236" value="" style="shape=tableRow;horizontal=0;startSize=0;swimlaneHead=0;swimlaneBody=0;strokeColor=inherit;top=0;left=0;bottom=0;right=0;collapsible=0;dropTarget=0;fillColor=none;points=[[0,0.5],[1,0.5]];portConstraint=eastwest;" vertex="1" parent="mhQpvdxV0dP0eFCjO9TV-220">
          <mxGeometry y="200" width="230" height="40" as="geometry" />
        </mxCell>
        <mxCell id="mhQpvdxV0dP0eFCjO9TV-237" value="函数的最后varN" style="shape=partialRectangle;html=1;whiteSpace=wrap;connectable=0;strokeColor=inherit;overflow=hidden;fillColor=none;top=0;left=0;bottom=0;right=0;pointerEvents=1;fontSize=16;fontFamily=Comic Sans MS;" vertex="1" parent="mhQpvdxV0dP0eFCjO9TV-236">
          <mxGeometry width="153" height="40" as="geometry">
            <mxRectangle width="153" height="40" as="alternateBounds" />
          </mxGeometry>
        </mxCell>
        <mxCell id="mhQpvdxV0dP0eFCjO9TV-238" value="-1" style="shape=partialRectangle;html=1;whiteSpace=wrap;connectable=0;strokeColor=inherit;overflow=hidden;fillColor=none;top=0;left=0;bottom=0;right=0;pointerEvents=1;fontSize=16;fontFamily=Comic Sans MS;" vertex="1" parent="mhQpvdxV0dP0eFCjO9TV-236">
          <mxGeometry x="153" width="77" height="40" as="geometry">
            <mxRectangle width="77" height="40" as="alternateBounds" />
          </mxGeometry>
        </mxCell>
        <mxCell id="mhQpvdxV0dP0eFCjO9TV-239" style="edgeStyle=orthogonalEdgeStyle;rounded=0;orthogonalLoop=1;jettySize=auto;html=1;entryX=0;entryY=0.5;entryDx=0;entryDy=0;" edge="1" source="mhQpvdxV0dP0eFCjO9TV-240" target="mhQpvdxV0dP0eFCjO9TV-236" parent="1">
          <mxGeometry relative="1" as="geometry">
            <Array as="points">
              <mxPoint x="1010" y="970" />
              <mxPoint x="950" y="970" />
              <mxPoint x="950" y="1220" />
            </Array>
          </mxGeometry>
        </mxCell>
        <mxCell id="mhQpvdxV0dP0eFCjO9TV-240" value="&lt;font face=&quot;Comic Sans MS&quot; style=&quot;font-size: 16px;&quot;&gt;va_list&amp;nbsp;&lt;/font&gt;&lt;span style=&quot;font-size: 16px; font-family: &amp;quot;Comic Sans MS&amp;quot;; color: rgb(51, 51, 51); orphans: 4; text-align: start; background-color: initial;&quot;&gt;arg_ptr&lt;/span&gt;&lt;font face=&quot;Comic Sans MS&quot; style=&quot;font-size: 16px;&quot;&gt;&lt;br&gt;&lt;/font&gt;" style="rounded=1;whiteSpace=wrap;html=1;fillColor=none;strokeColor=none;" vertex="1" parent="1">
          <mxGeometry x="950" y="900" width="120" height="60" as="geometry" />
        </mxCell>
        <mxCell id="mhQpvdxV0dP0eFCjO9TV-241" style="edgeStyle=orthogonalEdgeStyle;rounded=0;orthogonalLoop=1;jettySize=auto;html=1;exitX=0;exitY=0.5;exitDx=0;exitDy=0;" edge="1" source="mhQpvdxV0dP0eFCjO9TV-242" target="mhQpvdxV0dP0eFCjO9TV-221" parent="1">
          <mxGeometry relative="1" as="geometry" />
        </mxCell>
        <mxCell id="mhQpvdxV0dP0eFCjO9TV-242" value="&lt;h2 style=&quot;border-bottom: 1px solid rgb(238, 238, 238); box-sizing: border-box; break-after: avoid-page; break-inside: avoid; orphans: 4; margin-top: 1rem; margin-bottom: 1rem; position: relative; line-height: 1.225; cursor: text; color: rgb(51, 51, 51); text-align: start;&quot; class=&quot;md-end-block md-heading md-focus&quot;&gt;&lt;font style=&quot;border-color: var(--border-color); font-size: 16px; font-weight: normal;&quot; face=&quot;Comic Sans MS&quot;&gt;argN&lt;/font&gt;&lt;/h2&gt;" style="rounded=1;whiteSpace=wrap;html=1;fillColor=none;strokeColor=none;" vertex="1" parent="1">
          <mxGeometry x="1390" y="990" width="90" height="60" as="geometry" />
        </mxCell>
        <mxCell id="mhQpvdxV0dP0eFCjO9TV-243" value="&lt;font face=&quot;Comic Sans MS&quot; style=&quot;font-size: 16px;&quot;&gt;低地址&lt;br&gt;&lt;/font&gt;" style="rounded=1;whiteSpace=wrap;html=1;fillColor=none;strokeColor=none;" vertex="1" parent="1">
          <mxGeometry x="1560" y="160" width="120" height="60" as="geometry" />
        </mxCell>
        <mxCell id="mhQpvdxV0dP0eFCjO9TV-244" value="&lt;font face=&quot;Comic Sans MS&quot; style=&quot;font-size: 16px;&quot;&gt;高地址&lt;br&gt;&lt;/font&gt;" style="rounded=1;whiteSpace=wrap;html=1;fillColor=none;strokeColor=none;" vertex="1" parent="1">
          <mxGeometry x="1560" y="400" width="120" height="60" as="geometry" />
        </mxCell>
        <mxCell id="mhQpvdxV0dP0eFCjO9TV-245" value="&lt;font face=&quot;Comic Sans MS&quot; style=&quot;font-size: 16px;&quot;&gt;低地址&lt;br&gt;&lt;/font&gt;" style="rounded=1;whiteSpace=wrap;html=1;fillColor=none;strokeColor=none;" vertex="1" parent="1">
          <mxGeometry x="930" y="970" width="120" height="60" as="geometry" />
        </mxCell>
        <mxCell id="mhQpvdxV0dP0eFCjO9TV-246" value="&lt;font face=&quot;Comic Sans MS&quot; style=&quot;font-size: 16px;&quot;&gt;高地址&lt;br&gt;&lt;/font&gt;" style="rounded=1;whiteSpace=wrap;html=1;fillColor=none;strokeColor=none;" vertex="1" parent="1">
          <mxGeometry x="930" y="1210" width="120" height="60" as="geometry" />
        </mxCell>
        <mxCell id="mhQpvdxV0dP0eFCjO9TV-247" value="&lt;font face=&quot;Comic Sans MS&quot; style=&quot;font-size: 16px;&quot;&gt;低地址&lt;br&gt;&lt;/font&gt;" style="rounded=1;whiteSpace=wrap;html=1;fillColor=none;strokeColor=none;" vertex="1" parent="1">
          <mxGeometry x="380" y="570" width="120" height="60" as="geometry" />
        </mxCell>
        <mxCell id="mhQpvdxV0dP0eFCjO9TV-248" value="&lt;font face=&quot;Comic Sans MS&quot; style=&quot;font-size: 16px;&quot;&gt;高地址&lt;br&gt;&lt;/font&gt;" style="rounded=1;whiteSpace=wrap;html=1;fillColor=none;strokeColor=none;" vertex="1" parent="1">
          <mxGeometry x="380" y="810" width="120" height="60" as="geometry" />
        </mxCell>
        <mxCell id="mhQpvdxV0dP0eFCjO9TV-249" value="&lt;h2 style=&quot;box-sizing: border-box; break-after: avoid-page; break-inside: avoid; orphans: 4; margin-top: 1rem; margin-bottom: 1rem; position: relative; line-height: 1.225; cursor: text; border-bottom: 1px solid rgb(238, 238, 238); color: rgb(51, 51, 51); text-align: start;&quot; class=&quot;md-end-block md-heading md-focus&quot;&gt;&lt;font style=&quot;font-size: 16px; font-weight: normal;&quot; face=&quot;Comic Sans MS&quot;&gt;va_arg(arg_ptr, int)返回-1&lt;/font&gt;&lt;/h2&gt;" style="rounded=1;whiteSpace=wrap;html=1;fillColor=none;strokeColor=none;" vertex="1" parent="1">
          <mxGeometry x="1890" y="810" width="220" height="60" as="geometry" />
        </mxCell>
        <mxCell id="mhQpvdxV0dP0eFCjO9TV-250" value="" style="shape=table;startSize=0;container=1;collapsible=0;childLayout=tableLayout;fontSize=16;fontFamily=Comic Sans MS;" vertex="1" parent="1">
          <mxGeometry x="1650" y="620" width="230" height="240" as="geometry" />
        </mxCell>
        <mxCell id="mhQpvdxV0dP0eFCjO9TV-251" value="" style="shape=tableRow;horizontal=0;startSize=0;swimlaneHead=0;swimlaneBody=0;strokeColor=inherit;top=0;left=0;bottom=0;right=0;collapsible=0;dropTarget=0;fillColor=none;points=[[0,0.5],[1,0.5]];portConstraint=eastwest;" vertex="1" parent="mhQpvdxV0dP0eFCjO9TV-250">
          <mxGeometry width="230" height="40" as="geometry" />
        </mxCell>
        <mxCell id="mhQpvdxV0dP0eFCjO9TV-252" value="固定参数val1" style="shape=partialRectangle;html=1;whiteSpace=wrap;connectable=0;strokeColor=inherit;overflow=hidden;fillColor=none;top=0;left=0;bottom=0;right=0;pointerEvents=1;fontSize=16;fontFamily=Comic Sans MS;" vertex="1" parent="mhQpvdxV0dP0eFCjO9TV-251">
          <mxGeometry width="153" height="40" as="geometry">
            <mxRectangle width="153" height="40" as="alternateBounds" />
          </mxGeometry>
        </mxCell>
        <mxCell id="mhQpvdxV0dP0eFCjO9TV-253" value="9" style="shape=partialRectangle;html=1;whiteSpace=wrap;connectable=0;strokeColor=inherit;overflow=hidden;fillColor=none;top=0;left=0;bottom=0;right=0;pointerEvents=1;fontSize=16;fontFamily=Comic Sans MS;" vertex="1" parent="mhQpvdxV0dP0eFCjO9TV-251">
          <mxGeometry x="153" width="77" height="40" as="geometry">
            <mxRectangle width="77" height="40" as="alternateBounds" />
          </mxGeometry>
        </mxCell>
        <mxCell id="mhQpvdxV0dP0eFCjO9TV-254" style="shape=tableRow;horizontal=0;startSize=0;swimlaneHead=0;swimlaneBody=0;strokeColor=inherit;top=0;left=0;bottom=0;right=0;collapsible=0;dropTarget=0;fillColor=none;points=[[0,0.5],[1,0.5]];portConstraint=eastwest;" vertex="1" parent="mhQpvdxV0dP0eFCjO9TV-250">
          <mxGeometry y="40" width="230" height="40" as="geometry" />
        </mxCell>
        <mxCell id="mhQpvdxV0dP0eFCjO9TV-255" value="第一个可变参数va1" style="shape=partialRectangle;html=1;whiteSpace=wrap;connectable=0;strokeColor=inherit;overflow=hidden;fillColor=none;top=0;left=0;bottom=0;right=0;pointerEvents=1;fontSize=16;fontFamily=Comic Sans MS;" vertex="1" parent="mhQpvdxV0dP0eFCjO9TV-254">
          <mxGeometry width="153" height="40" as="geometry">
            <mxRectangle width="153" height="40" as="alternateBounds" />
          </mxGeometry>
        </mxCell>
        <mxCell id="mhQpvdxV0dP0eFCjO9TV-256" value="9" style="shape=partialRectangle;html=1;whiteSpace=wrap;connectable=0;strokeColor=inherit;overflow=hidden;fillColor=none;top=0;left=0;bottom=0;right=0;pointerEvents=1;fontSize=16;fontFamily=Comic Sans MS;" vertex="1" parent="mhQpvdxV0dP0eFCjO9TV-254">
          <mxGeometry x="153" width="77" height="40" as="geometry">
            <mxRectangle width="77" height="40" as="alternateBounds" />
          </mxGeometry>
        </mxCell>
        <mxCell id="mhQpvdxV0dP0eFCjO9TV-257" style="shape=tableRow;horizontal=0;startSize=0;swimlaneHead=0;swimlaneBody=0;strokeColor=inherit;top=0;left=0;bottom=0;right=0;collapsible=0;dropTarget=0;fillColor=none;points=[[0,0.5],[1,0.5]];portConstraint=eastwest;" vertex="1" parent="mhQpvdxV0dP0eFCjO9TV-250">
          <mxGeometry y="80" width="230" height="40" as="geometry" />
        </mxCell>
        <mxCell id="mhQpvdxV0dP0eFCjO9TV-258" value="第二个可变参数va2" style="shape=partialRectangle;html=1;whiteSpace=wrap;connectable=0;strokeColor=inherit;overflow=hidden;fillColor=none;top=0;left=0;bottom=0;right=0;pointerEvents=1;fontSize=16;fontFamily=Comic Sans MS;" vertex="1" parent="mhQpvdxV0dP0eFCjO9TV-257">
          <mxGeometry width="153" height="40" as="geometry">
            <mxRectangle width="153" height="40" as="alternateBounds" />
          </mxGeometry>
        </mxCell>
        <mxCell id="mhQpvdxV0dP0eFCjO9TV-259" value="5" style="shape=partialRectangle;html=1;whiteSpace=wrap;connectable=0;strokeColor=inherit;overflow=hidden;fillColor=none;top=0;left=0;bottom=0;right=0;pointerEvents=1;fontSize=16;fontFamily=Comic Sans MS;" vertex="1" parent="mhQpvdxV0dP0eFCjO9TV-257">
          <mxGeometry x="153" width="77" height="40" as="geometry">
            <mxRectangle width="77" height="40" as="alternateBounds" />
          </mxGeometry>
        </mxCell>
        <mxCell id="mhQpvdxV0dP0eFCjO9TV-260" style="shape=tableRow;horizontal=0;startSize=0;swimlaneHead=0;swimlaneBody=0;strokeColor=inherit;top=0;left=0;bottom=0;right=0;collapsible=0;dropTarget=0;fillColor=none;points=[[0,0.5],[1,0.5]];portConstraint=eastwest;" vertex="1" parent="mhQpvdxV0dP0eFCjO9TV-250">
          <mxGeometry y="120" width="230" height="40" as="geometry" />
        </mxCell>
        <mxCell id="mhQpvdxV0dP0eFCjO9TV-261" value="第三个可变参数va3" style="shape=partialRectangle;html=1;whiteSpace=wrap;connectable=0;strokeColor=inherit;overflow=hidden;fillColor=none;top=0;left=0;bottom=0;right=0;pointerEvents=1;fontSize=16;fontFamily=Comic Sans MS;" vertex="1" parent="mhQpvdxV0dP0eFCjO9TV-260">
          <mxGeometry width="153" height="40" as="geometry">
            <mxRectangle width="153" height="40" as="alternateBounds" />
          </mxGeometry>
        </mxCell>
        <mxCell id="mhQpvdxV0dP0eFCjO9TV-262" value="2" style="shape=partialRectangle;html=1;whiteSpace=wrap;connectable=0;strokeColor=inherit;overflow=hidden;fillColor=none;top=0;left=0;bottom=0;right=0;pointerEvents=1;fontSize=16;fontFamily=Comic Sans MS;" vertex="1" parent="mhQpvdxV0dP0eFCjO9TV-260">
          <mxGeometry x="153" width="77" height="40" as="geometry">
            <mxRectangle width="77" height="40" as="alternateBounds" />
          </mxGeometry>
        </mxCell>
        <mxCell id="mhQpvdxV0dP0eFCjO9TV-263" style="shape=tableRow;horizontal=0;startSize=0;swimlaneHead=0;swimlaneBody=0;strokeColor=inherit;top=0;left=0;bottom=0;right=0;collapsible=0;dropTarget=0;fillColor=none;points=[[0,0.5],[1,0.5]];portConstraint=eastwest;" vertex="1" parent="mhQpvdxV0dP0eFCjO9TV-250">
          <mxGeometry y="160" width="230" height="40" as="geometry" />
        </mxCell>
        <mxCell id="mhQpvdxV0dP0eFCjO9TV-264" value="第三个可变参数va4" style="shape=partialRectangle;html=1;whiteSpace=wrap;connectable=0;strokeColor=inherit;overflow=hidden;fillColor=none;top=0;left=0;bottom=0;right=0;pointerEvents=1;fontSize=16;fontFamily=Comic Sans MS;" vertex="1" parent="mhQpvdxV0dP0eFCjO9TV-263">
          <mxGeometry width="153" height="40" as="geometry">
            <mxRectangle width="153" height="40" as="alternateBounds" />
          </mxGeometry>
        </mxCell>
        <mxCell id="mhQpvdxV0dP0eFCjO9TV-265" value="7" style="shape=partialRectangle;html=1;whiteSpace=wrap;connectable=0;strokeColor=inherit;overflow=hidden;fillColor=none;top=0;left=0;bottom=0;right=0;pointerEvents=1;fontSize=16;fontFamily=Comic Sans MS;" vertex="1" parent="mhQpvdxV0dP0eFCjO9TV-263">
          <mxGeometry x="153" width="77" height="40" as="geometry">
            <mxRectangle width="77" height="40" as="alternateBounds" />
          </mxGeometry>
        </mxCell>
        <mxCell id="mhQpvdxV0dP0eFCjO9TV-266" value="" style="shape=tableRow;horizontal=0;startSize=0;swimlaneHead=0;swimlaneBody=0;strokeColor=inherit;top=0;left=0;bottom=0;right=0;collapsible=0;dropTarget=0;fillColor=none;points=[[0,0.5],[1,0.5]];portConstraint=eastwest;" vertex="1" parent="mhQpvdxV0dP0eFCjO9TV-250">
          <mxGeometry y="200" width="230" height="40" as="geometry" />
        </mxCell>
        <mxCell id="mhQpvdxV0dP0eFCjO9TV-267" value="函数的最后varN" style="shape=partialRectangle;html=1;whiteSpace=wrap;connectable=0;strokeColor=inherit;overflow=hidden;fillColor=none;top=0;left=0;bottom=0;right=0;pointerEvents=1;fontSize=16;fontFamily=Comic Sans MS;" vertex="1" parent="mhQpvdxV0dP0eFCjO9TV-266">
          <mxGeometry width="153" height="40" as="geometry">
            <mxRectangle width="153" height="40" as="alternateBounds" />
          </mxGeometry>
        </mxCell>
        <mxCell id="mhQpvdxV0dP0eFCjO9TV-268" value="-1" style="shape=partialRectangle;html=1;whiteSpace=wrap;connectable=0;strokeColor=inherit;overflow=hidden;fillColor=none;top=0;left=0;bottom=0;right=0;pointerEvents=1;fontSize=16;fontFamily=Comic Sans MS;" vertex="1" parent="mhQpvdxV0dP0eFCjO9TV-266">
          <mxGeometry x="153" width="77" height="40" as="geometry">
            <mxRectangle width="77" height="40" as="alternateBounds" />
          </mxGeometry>
        </mxCell>
        <mxCell id="mhQpvdxV0dP0eFCjO9TV-269" style="edgeStyle=orthogonalEdgeStyle;rounded=0;orthogonalLoop=1;jettySize=auto;html=1;" edge="1" source="mhQpvdxV0dP0eFCjO9TV-270" parent="1">
          <mxGeometry relative="1" as="geometry">
            <mxPoint x="1650" y="920" as="targetPoint" />
            <Array as="points">
              <mxPoint x="1640" y="590" />
              <mxPoint x="1580" y="590" />
              <mxPoint x="1580" y="910" />
              <mxPoint x="1650" y="910" />
            </Array>
          </mxGeometry>
        </mxCell>
        <mxCell id="mhQpvdxV0dP0eFCjO9TV-270" value="&lt;font face=&quot;Comic Sans MS&quot; style=&quot;font-size: 16px;&quot;&gt;va_list&amp;nbsp;&lt;/font&gt;&lt;span style=&quot;font-size: 16px; font-family: &amp;quot;Comic Sans MS&amp;quot;; color: rgb(51, 51, 51); orphans: 4; text-align: start; background-color: initial;&quot;&gt;arg_ptr&lt;/span&gt;&lt;font face=&quot;Comic Sans MS&quot; style=&quot;font-size: 16px;&quot;&gt;&lt;br&gt;&lt;/font&gt;" style="rounded=1;whiteSpace=wrap;html=1;fillColor=none;strokeColor=none;" vertex="1" parent="1">
          <mxGeometry x="1580" y="520" width="120" height="60" as="geometry" />
        </mxCell>
        <mxCell id="mhQpvdxV0dP0eFCjO9TV-271" style="edgeStyle=orthogonalEdgeStyle;rounded=0;orthogonalLoop=1;jettySize=auto;html=1;exitX=0;exitY=0.5;exitDx=0;exitDy=0;" edge="1" source="mhQpvdxV0dP0eFCjO9TV-272" target="mhQpvdxV0dP0eFCjO9TV-251" parent="1">
          <mxGeometry relative="1" as="geometry" />
        </mxCell>
        <mxCell id="mhQpvdxV0dP0eFCjO9TV-272" value="&lt;h2 style=&quot;border-bottom: 1px solid rgb(238, 238, 238); box-sizing: border-box; break-after: avoid-page; break-inside: avoid; orphans: 4; margin-top: 1rem; margin-bottom: 1rem; position: relative; line-height: 1.225; cursor: text; color: rgb(51, 51, 51); text-align: start;&quot; class=&quot;md-end-block md-heading md-focus&quot;&gt;&lt;font style=&quot;border-color: var(--border-color); font-size: 16px; font-weight: normal;&quot; face=&quot;Comic Sans MS&quot;&gt;argN&lt;/font&gt;&lt;/h2&gt;" style="rounded=1;whiteSpace=wrap;html=1;fillColor=none;strokeColor=none;" vertex="1" parent="1">
          <mxGeometry x="2020" y="610" width="90" height="60" as="geometry" />
        </mxCell>
        <mxCell id="mhQpvdxV0dP0eFCjO9TV-273" value="&lt;font face=&quot;Comic Sans MS&quot; style=&quot;font-size: 16px;&quot;&gt;低地址&lt;br&gt;&lt;/font&gt;" style="rounded=1;whiteSpace=wrap;html=1;fillColor=none;strokeColor=none;" vertex="1" parent="1">
          <mxGeometry x="1560" y="590" width="120" height="60" as="geometry" />
        </mxCell>
        <mxCell id="mhQpvdxV0dP0eFCjO9TV-274" value="&lt;font face=&quot;Comic Sans MS&quot; style=&quot;font-size: 16px;&quot;&gt;高地址&lt;br&gt;&lt;/font&gt;" style="rounded=1;whiteSpace=wrap;html=1;fillColor=none;strokeColor=none;" vertex="1" parent="1">
          <mxGeometry x="1560" y="830" width="120" height="60" as="geometry" />
        </mxCell>
      </root>
    </mxGraphModel>
  </diagram>
</mxfile>
